<?xml version="1.0" encoding="UTF-8"?>
<svg version="1.1" xmlns="http://www.w3.org/2000/svg" width="512" height="512">
<path d="M0 0 C1.46641289 -0.00131093 2.93282509 -0.00394261 4.39923358 -0.0077675 C8.39696868 -0.0144281 12.39445949 -0.00254143 16.39216352 0.01256669 C20.71510086 0.02558723 25.03802572 0.02113335 29.36097717 0.01885986 C36.84022505 0.01729092 44.31939408 0.02666042 51.79862213 0.04357338 C62.61216332 0.06801032 73.42566659 0.07577344 84.23923239 0.07953735 C101.78579158 0.08609449 119.3323088 0.10603558 136.87884521 0.13444519 C153.91823114 0.16200489 170.95760559 0.18319469 187.99700928 0.19596863 C189.05897188 0.19677262 190.12093447 0.19757661 191.21507776 0.19840497 C199.52098699 0.20464366 207.82689648 0.21051428 216.13280606 0.21626866 C256.8071428 0.24454218 297.48137441 0.30490359 338.15570068 0.36076355 C338.15570068 84.51076355 338.15570068 168.66076355 338.15570068 255.36076355 C341.78570068 256.02076355 345.41570068 256.68076355 349.15570068 257.36076355 C352.50931427 258.48656291 355.7123255 259.63797812 358.96820068 260.98576355 C359.83203369 261.33985291 360.6958667 261.69394226 361.58587646 262.0587616 C393.38668369 275.40115861 417.16863147 300.09215014 431.15570068 331.36076355 C431.87886475 332.97531433 431.87886475 332.97531433 432.61663818 334.6224823 C445.903316 366.71182237 443.58712607 402.67074557 430.81536865 434.40837097 C417.87282726 465.19073239 391.31565157 490.44689248 360.62689209 503.20109558 C344.55545155 509.60286888 328.75510913 512.51276537 311.48695374 512.50120544 C310.08703171 512.50379165 308.68711042 512.50680552 307.28719014 512.51020885 C303.44963412 512.51825197 299.61209684 512.52006691 295.77453339 512.52080631 C291.63191551 512.52266154 287.48930724 512.53021119 283.34669495 512.53694153 C274.29287481 512.55050586 265.2390591 512.55654649 256.18523049 512.56095219 C250.52913269 512.5637176 244.87303658 512.56795547 239.21693993 512.57245636 C223.54830819 512.58464612 207.87967782 512.59494629 192.21104145 512.59833145 C191.20881822 512.59855102 190.20659498 512.59877058 189.17400135 512.5989968 C188.16942124 512.59921508 187.16484114 512.59943336 186.12981921 512.59965825 C184.09425692 512.60010171 182.05869462 512.60054828 180.02313232 512.60099792 C179.01342954 512.60121935 178.00372675 512.60144078 176.96342691 512.60166892 C160.60517967 512.60561638 144.24697699 512.62307011 127.88874695 512.64635745 C111.08292121 512.67008836 94.2771178 512.68253408 77.47127503 512.68369937 C68.03986475 512.6846151 58.60851255 512.69034193 49.1771183 512.70851898 C41.14585613 512.72394339 33.11466999 512.7290266 25.08339582 512.72078088 C20.98873944 512.71688278 16.89423609 512.71776279 12.79959869 512.73183823 C9.04465285 512.7446275 5.28997422 512.74333595 1.53502848 512.73124751 C-0.45302486 512.72838248 -2.44108304 512.74018801 -4.42909926 512.75266957 C-22.85706905 512.65180205 -38.53298082 506.15773435 -51.84429932 493.36076355 C-67.03104349 477.80836743 -71.32117016 459.07732583 -71.23197937 437.87142944 C-71.23616028 436.23818815 -71.24164193 434.60494977 -71.24829918 432.9717167 C-71.26267332 428.51689609 -71.25853437 424.06226175 -71.25113237 419.60743129 C-71.24638296 414.78997713 -71.2589262 409.97256224 -71.26914978 405.15512085 C-71.28630878 395.72999909 -71.28718377 386.30494409 -71.28193688 376.87981077 C-71.27788835 369.21530066 -71.27934684 361.55081022 -71.28468513 353.88630104 C-71.28543356 352.79363892 -71.28618198 351.70097681 -71.28695308 350.57520372 C-71.28848463 348.35514336 -71.29002298 346.135083 -71.29156805 343.91502265 C-71.30528274 323.11525608 -71.29986277 302.31552717 -71.28838284 281.51576147 C-71.27845272 262.50930522 -71.29138916 243.50294634 -71.31531703 224.4965051 C-71.3397311 204.95583173 -71.34931015 185.41520367 -71.3426643 165.87451535 C-71.33917707 154.91387526 -71.34137134 143.95331002 -71.35891533 132.9926815 C-71.37366622 123.66170324 -71.37423511 114.33085254 -71.35684442 104.9998767 C-71.34835561 100.24442357 -71.34613279 95.48919804 -71.36149597 90.73375702 C-71.37541661 86.37060972 -71.3704861 82.00788345 -71.35125674 77.64476005 C-71.34751887 76.07623488 -71.35035392 74.50767538 -71.36086839 72.93918099 C-71.4922662 51.8163056 -65.65780371 33.98094393 -50.84429932 18.36076355 C-36.49714073 4.57290098 -19.47379147 -0.13090954 0 0 Z M-29.15679932 41.04826355 C-35.48634325 47.80063127 -38.97092061 55.6778138 -38.96734715 64.89736557 C-38.96933819 66.03046654 -38.97132924 67.1635675 -38.97338063 68.33100486 C-38.97046778 69.57612979 -38.96755494 70.82125473 -38.96455383 72.10411072 C-38.96498984 73.43987366 -38.96586528 74.77563653 -38.967143 76.11139894 C-38.96938221 79.78508079 -38.96537448 83.45873357 -38.96036494 87.13241172 C-38.95605243 91.09284194 -38.95750743 95.05327048 -38.95826721 99.01370239 C-38.95879194 105.87646118 -38.95565049 112.73921046 -38.95002937 119.60196686 C-38.94190744 129.52439944 -38.93929844 139.44682742 -38.93804138 149.36926296 C-38.93585196 165.46718113 -38.92919483 181.56509423 -38.91973877 197.66300964 C-38.91056183 213.30200678 -38.90348237 228.94100254 -38.89923096 244.58000183 C-38.89896823 245.54375051 -38.89870551 246.50749919 -38.89843483 247.50045237 C-38.8971298 252.33522484 -38.89586609 257.16999732 -38.89462292 262.0047698 C-38.88425371 302.12343793 -38.86663836 342.24210041 -38.84429932 382.36076355 C-37.33802979 381.65500183 -37.33802979 381.65500183 -35.80133057 380.9349823 C-34.42010748 380.30544525 -33.03858009 379.67657558 -31.65679932 379.04826355 C-31.0026001 378.73953308 -30.34840088 378.43080261 -29.67437744 378.11271667 C-13.38967299 370.78074074 2.17428013 371.96014423 20.15570068 371.36076355 C20.15570068 258.83076355 20.15570068 146.30076355 20.15570068 30.36076355 C-6.77571239 29.25494095 -6.77571239 29.25494095 -29.15679932 41.04826355 Z M51.15570068 30.36076355 C51.15570068 142.89076355 51.15570068 255.42076355 51.15570068 371.36076355 C94.05570068 371.36076355 136.95570068 371.36076355 181.15570068 371.36076355 C183.63070068 358.98576355 183.63070068 358.98576355 186.15570068 346.36076355 C187.97183602 340.8316404 189.768276 335.6199386 192.15570068 330.36076355 C192.4587915 329.68722839 192.76188232 329.01369324 193.07415771 328.31974792 C197.20820954 319.28242061 201.89093995 311.1219199 208.15570068 303.36076355 C208.572229 302.83885437 208.98875732 302.31694519 209.41790771 301.77922058 C234.84489214 270.08613469 267.55171835 257.7613066 307.15570068 252.36076355 C307.15570068 179.10076355 307.15570068 105.84076355 307.15570068 30.36076355 C222.67570068 30.36076355 138.19570068 30.36076355 51.15570068 30.36076355 Z M265.15570068 294.36076355 C264.06515381 294.91892761 262.97460693 295.47709167 261.85101318 296.0521698 C254.73898303 299.95202348 248.946758 304.70937923 243.15570068 310.36076355 C241.85632568 311.59826355 241.85632568 311.59826355 240.53070068 312.86076355 C239.74695068 313.68576355 238.96320068 314.51076355 238.15570068 315.36076355 C237.2855835 316.23861511 237.2855835 316.23861511 236.39788818 317.13420105 C227.57948743 326.43674929 221.66890851 337.1781704 217.21820068 349.11076355 C216.93581543 349.86599304 216.65343018 350.62122253 216.36248779 351.39933777 C207.89635139 375.39926475 210.32702162 402.75303033 221.18304443 425.5131073 C233.2036597 449.5120755 253.19263175 467.87425455 278.55804443 477.0287323 C304.59398154 485.62558867 331.90342953 483.40781291 356.39544678 471.26652527 C378.98990745 459.64024939 396.63385088 439.40994939 405.16351318 415.4974823 C413.85134667 388.03161503 411.55646467 360.19311078 398.34320068 334.61076355 C384.39800327 310.47762398 362.96673542 293.67678485 336.24163818 286.1381073 C312.03272316 280.03991225 287.2960825 282.93681448 265.15570068 294.36076355 Z M-30.71929932 416.29826355 C-38.5406438 425.83110224 -40.75906168 436.17845207 -39.84429932 448.36076355 C-37.81537977 460.34673364 -30.37351968 469.22071371 -20.84429932 476.36076355 C-18.02305107 477.85159643 -18.02305107 477.85159643 -15.03179932 479.04826355 C-14.055979 479.46463074 -13.08015869 479.88099792 -12.07476807 480.3099823 C-5.28054175 482.51995434 1.66047725 482.50498306 8.73553467 482.48101807 C10.13623734 482.4822997 10.13623734 482.4822997 11.56523705 482.48360723 C14.67744269 482.4852473 17.7895938 482.47976487 20.90179443 482.47428894 C23.1393992 482.47400672 25.37700405 482.47416547 27.61460876 482.47473145 C33.67799937 482.47501808 39.74137016 482.46914298 45.80475616 482.46215749 C52.14553222 482.45590166 58.48630874 482.45531838 64.8270874 482.45413208 C75.46608869 482.45137821 86.10508216 482.44513411 96.74407959 482.436203 C107.69948287 482.42701588 118.65488417 482.41994141 129.61029053 482.41569519 C130.28623674 482.41543247 130.96218294 482.41516974 131.65861237 482.41489906 C135.04983146 482.41359397 138.44105056 482.41233027 141.83226967 482.41108716 C169.94008506 482.40073019 198.04789242 482.38305092 226.15570068 482.36076355 C225.19959495 481.23581427 224.24214112 480.11201065 223.28411865 478.98869324 C222.75108124 478.36275269 222.21804382 477.73681213 221.66885376 477.09190369 C219.97020839 475.14854896 218.16494352 473.3737032 216.28070068 471.61076355 C213.90926306 469.36924431 212.21738531 467.47637245 210.67378998 464.58337688 C208.61039528 460.79039496 206.61554927 457.20413696 202.32492256 455.73307061 C196.62700762 454.70581022 190.83485645 454.98384006 185.07171631 455.11198425 C183.11982398 455.11508932 181.16791881 455.11334098 179.21603394 455.1071167 C173.93042008 455.10396581 168.64756299 455.16854121 163.36258888 455.24543023 C157.83474407 455.31428811 152.30683299 455.32066344 146.77862549 455.33370972 C136.31640685 455.36787242 125.85545557 455.45810172 115.39379454 455.5685541 C103.48107679 455.69159085 91.56829788 455.75200728 79.65510273 455.80720389 C55.15457608 455.92212149 30.65526293 456.11776958 6.15570068 456.36076355 C6.15570068 446.46076355 6.15570068 436.56076355 6.15570068 426.36076355 C66.21570068 426.36076355 126.27570068 426.36076355 188.15570068 426.36076355 C186.17570068 418.44076355 186.17570068 418.44076355 184.15570068 410.36076355 C183.16570068 406.40076355 183.16570068 406.40076355 182.15570068 402.36076355 C157.68588969 402.29062915 133.21609379 402.23775363 108.74620247 402.20532703 C97.38396974 402.18986947 86.02179953 402.16880114 74.65960693 402.13444519 C64.75434224 402.10450889 54.84912283 402.08518047 44.94381416 402.07849807 C39.70082929 402.07459299 34.45797396 402.06543857 29.21503067 402.04357338 C24.27552252 402.02314143 19.33619671 402.0169433 14.39665031 402.02144051 C12.58832621 402.0206183 10.77999573 402.01469278 8.9717083 402.00314713 C-7.2109702 401.90493131 -19.26745325 403.89413177 -30.71929932 416.29826355 Z " fill="#FFFFFF" transform="translate(70.84429931640625,-0.3607635498046875)"/>
<path d="M0 0 C55.77 0 111.54 0 169 0 C169 10.23 169 20.46 169 31 C113.23 31 57.46 31 0 31 C0 20.77 0 10.54 0 0 Z " fill="#FFFFFF" transform="translate(167,153)"/>
<path d="M0 0 C10.23 0 20.46 0 31 0 C31 10.23 31 20.46 31 31 C41.23 31 51.46 31 62 31 C62 41.23 62 51.46 62 62 C51.77 62 41.54 62 31 62 C31 71.9 31 81.8 31 92 C20.77 92 10.54 92 0 92 C0 82.1 0 72.2 0 62 C-9.9 62 -19.8 62 -30 62 C-30 51.77 -30 41.54 -30 31 C-20.1 31 -10.2 31 0 31 C0 20.77 0 10.54 0 0 Z " fill="#FFFFFF" transform="translate(366,336)"/>
<path d="M0 0 C33.33 0 66.66 0 101 0 C101 10.23 101 20.46 101 31 C67.67 31 34.34 31 0 31 C0 20.77 0 10.54 0 0 Z " fill="#FFFFFF" transform="translate(201,88)"/>
</svg>
