<?xml version="1.0" encoding="UTF-8"?>
<svg version="1.1" xmlns="http://www.w3.org/2000/svg" width="512" height="512">
<path d="M0 0 C2.95950101 1.70966934 2.95950101 1.70966934 6.67578125 0.234375 C7.45695312 -0.06210938 8.238125 -0.35859375 9.04296875 -0.6640625 C30.45354719 -8.55217035 55.61998962 -8.74986819 76.67578125 0.359375 C80.67609103 1.81685221 83.07559044 0.73756514 86.92578125 -0.890625 C87.86550781 -1.35855469 88.80523437 -1.82648438 89.7734375 -2.30859375 C102.81758349 -8.19577468 120.38113042 -7.59008221 133.76171875 -3.0234375 C152.66550512 5.02376627 163.98486912 18.19572302 171.90625 36.73828125 C176.49487713 50.15947702 175.4654872 67.38424948 169.86328125 80.296875 C169.50105469 81.17214844 169.13882812 82.04742187 168.765625 82.94921875 C161.71454137 98.46160273 149.18063947 108.62537188 133.86328125 115.296875 C132.2064103 115.73189277 130.54056404 116.1362597 128.86328125 116.484375 C125.74145944 117.39708641 124.96823167 118.14027113 123.1171875 120.90234375 C121.9586524 123.14182152 120.83517195 125.39968459 119.7421875 127.671875 C109.87794607 147.66972545 91.05698963 160.48226832 70.86328125 168.296875 C69.87328125 168.626875 68.88328125 168.956875 67.86328125 169.296875 C67.84346191 170.32345215 67.82364258 171.3500293 67.80322266 172.40771484 C67.72566523 176.31074767 67.6372167 180.2134779 67.54589844 184.11621094 C67.50821492 185.78769854 67.4732717 187.45925074 67.44140625 189.13085938 C67.26811555 198.12031424 66.92265559 207.04509806 65.95703125 215.98828125 C65.88199371 216.69910858 65.80695618 217.40993591 65.72964478 218.14230347 C62.48635265 245.74547336 46.73811999 271.67280667 25.23828125 288.921875 C12.96639781 298.40202652 -0.28219491 304.94070965 -15.13671875 309.296875 C-16.2659375 309.6371875 -17.39515625 309.9775 -18.55859375 310.328125 C-46.61856475 317.31079059 -77.38004217 311.68426296 -102.13671875 297.296875 C-127.84693274 281.15325226 -146.01365944 256.27030031 -152.99230957 226.6675415 C-154.84363673 217.45591053 -155.56715039 208.65454598 -155.54740906 199.26747894 C-155.54282338 196.89349355 -155.55722124 194.52021262 -155.57580566 192.14630127 C-155.61822241 186.26150865 -155.62979843 180.37673989 -155.64202881 174.49182129 C-155.65364094 169.48567563 -155.67740824 164.4798611 -155.71672058 159.47385406 C-155.73009424 157.15858615 -155.72615969 154.84379337 -155.72131348 152.52850342 C-155.76527949 140.37675823 -156.78471554 128.77752729 -165.13671875 119.296875 C-173.34918742 111.68531867 -182.25737885 108.87642879 -193.34765625 108.9453125 C-201.32779266 109.68573753 -208.17768126 112.99995279 -214.13671875 118.296875 C-215.86020427 120.33744566 -215.86020427 120.33744566 -217.26171875 122.546875 C-217.73867187 123.25328125 -218.215625 123.9596875 -218.70703125 124.6875 C-222.18986513 131.04414762 -223.58305135 136.44011304 -223.53544617 143.5859375 C-223.54209299 144.3808985 -223.54873982 145.17585951 -223.55558807 145.99491024 C-223.57412157 148.63736496 -223.57161935 151.27936304 -223.5690918 153.921875 C-223.57811486 155.82451512 -223.58844341 157.72714943 -223.59997559 159.629776 C-223.62750771 164.77997991 -223.63682499 169.93007339 -223.64282966 175.08034134 C-223.65222315 180.46823739 -223.67842736 185.85605129 -223.70283508 191.24389648 C-223.74647688 201.43987072 -223.77503813 211.635829 -223.79815847 221.83186817 C-223.82522254 233.44252102 -223.86913334 245.05309112 -223.91444719 256.66368484 C-224.00726027 280.54137001 -224.07895633 304.41908113 -224.13671875 328.296875 C-223.53165876 328.29535612 -222.92659878 328.29383724 -222.30320364 328.29227233 C-186.38687663 328.20262435 -150.47056899 328.13406038 -114.55415324 328.09261368 C-110.23491382 328.08761127 -105.91567463 328.08243394 -101.59643555 328.07714844 C-100.73660716 328.0760992 -99.87677876 328.07504995 -98.99089497 328.07396892 C-85.09607906 328.05659673 -71.20132982 328.02507673 -57.30655337 327.98826382 C-43.03328881 327.95076548 -28.760059 327.92862041 -14.48674721 327.92052102 C-5.68998804 327.91505162 3.10658263 327.8978211 11.90328372 327.86520913 C17.94781893 327.84395125 23.99225768 327.83770025 30.0368275 327.84286949 C33.51644539 327.8454139 36.99573555 327.84170824 40.47529411 327.8200531 C70.17915038 327.66249902 94.19074155 332.94408295 116.52734375 353.87109375 C134.81241136 372.85943319 142.48492694 396.50583308 142.140625 422.46875 C141.3573879 446.20745849 130.20932866 467.43279848 113.40380859 483.88134766 C97.85205624 498.17121456 77.40207903 506.52026733 56.30859375 506.39453125 C55.40704559 506.3931163 54.50549744 506.39170135 53.57662964 506.39024353 C50.71381225 506.3846724 47.85107477 506.37212526 44.98828125 506.359375 C43.04036572 506.35435627 41.09244895 506.34979401 39.14453125 506.34570312 C34.38408407 506.33471242 29.62369618 506.31746777 24.86328125 506.296875 C24.86328125 500.686875 24.86328125 495.076875 24.86328125 489.296875 C27.43238281 489.27109375 30.00148438 489.2453125 32.6484375 489.21875 C35.19061339 489.180124 37.73260029 489.13503105 40.2746582 489.08935547 C42.01512328 489.061467 43.75570745 489.04009623 45.49633789 489.02587891 C66.31880756 488.84580566 84.82029615 484.53219981 100.86328125 470.296875 C101.45238281 469.80058594 102.04148437 469.30429687 102.6484375 468.79296875 C112.43001236 459.90265356 118.26196881 447.79554757 121.86328125 435.296875 C122.10820312 434.45898438 122.353125 433.62109375 122.60546875 432.7578125 C127.15958279 414.10466049 122.65596964 394.43778878 112.86328125 378.296875 C101.51117766 361.54013166 84.93484881 350.59891238 65.09967124 346.76232868 C61.73427496 346.27832147 58.54295751 346.16599133 55.14354134 346.1582098 C54.48997115 346.15536758 53.83640096 346.15252536 53.16302562 346.14959702 C50.97586854 346.14128373 48.78876466 346.13998447 46.60159302 346.13865662 C45.01661488 346.13408897 43.43163794 346.12908865 41.8466624 346.12369305 C37.49341835 346.11012561 33.1401821 346.10269762 28.78692245 346.09626639 C24.09167823 346.08825633 19.39645021 346.07456063 14.70121765 346.06155396 C6.56710442 346.03979982 -1.56701046 346.02165143 -9.70113754 346.00594902 C-21.46173403 345.98324073 -33.22231258 345.95509922 -44.98289384 345.92562974 C-64.06345776 345.87796561 -83.14402902 345.83469822 -102.22460938 345.79418945 C-120.76009696 345.75482854 -139.29557801 345.71340088 -157.83105469 345.66918945 C-158.97349765 345.66646518 -160.11594062 345.66374091 -161.29300307 345.66093408 C-167.02427863 345.64725451 -172.7555541 345.63353425 -178.48682952 345.61979377 C-226.03677902 345.5058475 -273.58674273 345.3991072 -321.13671875 345.296875 C-321.13671875 350.246875 -321.13671875 355.196875 -321.13671875 360.296875 C-318.2093357 360.29272693 -318.2093357 360.29272693 -315.22281361 360.28849506 C-268.8782605 360.22349755 -222.53371239 360.17404144 -176.18912305 360.14367901 C-170.48277141 360.13992697 -164.77641986 360.13604399 -159.07006836 360.13208008 C-157.93405417 360.13129315 -156.79803997 360.13050622 -155.62760111 360.12969544 C-137.24233399 360.11664762 -118.85709506 360.0929972 -100.47184465 360.06541661 C-81.60170656 360.03734507 -62.73158322 360.02069504 -43.8614251 360.01460952 C-32.22100528 360.01049671 -20.58066514 359.99751465 -8.94026985 359.9731256 C-0.95401981 359.95724684 7.03218913 359.95247949 15.0184538 359.95637087 C19.62354988 359.95828907 24.22850687 359.95538396 28.83357811 359.93925858 C33.05638022 359.92458033 37.27895067 359.92397365 41.5017638 359.93417832 C43.02285109 359.93543817 44.54395328 359.93170003 46.06501158 359.92222545 C64.69638371 359.81299705 79.92867667 363.7580202 93.6484375 376.921875 C104.94633066 389.0367234 110.4041455 403.88290031 110.046875 420.359375 C109.09627416 435.5689885 102.28496938 449.83460558 91.23828125 460.31640625 C76.19623287 472.8596933 60.80635153 474.94984298 41.92578125 474.546875 C40.2597875 474.52674607 38.5937698 474.50850678 36.92773438 474.4921875 C32.90514769 474.45222141 28.88599668 474.37386477 24.86328125 474.296875 C24.86328125 468.686875 24.86328125 463.076875 24.86328125 457.296875 C27.0340625 457.25949219 29.20484375 457.22210938 31.44140625 457.18359375 C33.58635508 457.13714248 35.73114543 457.08599585 37.87597656 457.03442383 C39.34592743 457.00154082 40.81599348 456.97340006 42.28613281 456.95043945 C55.41297651 456.74001597 67.3308283 455.88112856 77.86328125 447.296875 C78.50136719 446.78253906 79.13945312 446.26820313 79.796875 445.73828125 C87.4796115 438.84860142 90.48350443 429.5175883 91.703125 419.48828125 C92.25412354 408.5086275 88.11293746 397.6079237 80.73828125 389.421875 C69.00640997 378.80608882 54.78273626 377.99751009 39.82322693 378.0184021 C38.19028528 378.0133946 36.55734611 378.00751747 34.9244104 378.00084937 C30.45251167 377.98509036 25.98067585 377.98162095 21.5087527 377.98020077 C16.68062681 377.97649955 11.85253514 377.96134047 7.02442932 377.94758606 C-1.33553774 377.92533208 -9.69549261 377.91030759 -18.05548286 377.90021896 C-30.14256279 377.88562209 -42.2296002 377.8600824 -54.31665515 377.83188768 C-73.92797042 377.78643804 -93.53929182 377.74981567 -113.15063477 377.71875 C-132.19914831 377.68855698 -151.24764688 377.65420323 -170.29614258 377.61425781 C-171.47065432 377.61179626 -172.64516607 377.60933472 -173.85526908 377.60679857 C-179.74755759 377.59442383 -185.63984592 377.58196732 -191.53213418 377.56947017 C-240.40030871 377.46592975 -289.2685011 377.3772623 -338.13671875 377.296875 C-338.13671875 361.126875 -338.13671875 344.956875 -338.13671875 328.296875 C-320.64671875 328.296875 -303.15671875 328.296875 -285.13671875 328.296875 C-285.14719238 322.69605957 -285.15766602 317.09524414 -285.16845703 311.32470703 C-285.20165649 292.78082095 -285.22381438 274.23693367 -285.24034309 255.69302559 C-285.25062805 244.45435184 -285.26463484 233.21570637 -285.28759766 221.97705078 C-285.30761707 212.17425481 -285.32045536 202.37147933 -285.32489574 192.56866348 C-285.32748872 187.38469965 -285.33352452 182.20079444 -285.34817886 177.01684952 C-285.36189833 172.12330637 -285.36591282 167.22984519 -285.36293411 162.33628464 C-285.36347793 160.55390221 -285.36736886 158.77151662 -285.3751297 156.989151 C-285.41171562 148.14210181 -285.20649892 139.40854701 -284.25924683 130.60617065 C-284.1832268 129.89097295 -284.10720677 129.17577524 -284.0288831 128.43890488 C-281.12330934 104.19977353 -267.30058164 82.05416968 -248.40966797 66.91259766 C-227.76373219 51.27070567 -202.48495043 45.12378138 -176.85302734 48.19555664 C-158.82477048 50.73641288 -141.76445626 58.19978917 -128.13671875 70.296875 C-127.13125 71.08964844 -127.13125 71.08964844 -126.10546875 71.8984375 C-108.13918375 86.3712782 -97.99634861 109.85489128 -95.13671875 132.296875 C-94.88709766 137.2558745 -94.83779464 142.20344386 -94.8317585 147.16801262 C-94.82804121 149.62970655 -94.81117235 152.09101641 -94.79100037 154.55262756 C-94.73609002 161.54339411 -94.70497048 168.5342141 -94.68041992 175.52514648 C-94.66442608 179.82385189 -94.63409385 184.1222792 -94.59565544 188.42083931 C-94.58411836 190.04367659 -94.57807609 191.66656378 -94.57797432 193.28944206 C-94.57696723 205.06965002 -94.11052301 216.4391626 -87.69921875 226.734375 C-87.12300781 227.68183594 -86.54679688 228.62929687 -85.953125 229.60546875 C-78.50740688 240.6379414 -67.64281569 247.57948255 -54.765625 250.91015625 C-38.96653393 253.23424245 -25.75813571 249.82467537 -12.72265625 240.5859375 C-3.51052559 233.08327438 2.2731356 222.80354979 4.86328125 211.296875 C5.22517164 207.60661543 5.21634788 203.96285157 5.15625 200.2578125 C5.15200516 199.25094391 5.14776031 198.24407532 5.14338684 197.20669556 C5.12675285 194.02813621 5.08913 190.85023886 5.05078125 187.671875 C5.03571464 185.50131132 5.02202972 183.33073758 5.00976562 181.16015625 C4.97689972 175.87217448 4.92685586 170.58457206 4.86328125 165.296875 C4.14027832 164.91378174 3.41727539 164.53068848 2.67236328 164.13598633 C-12.75568222 155.86075652 -28.41943911 144.5797603 -35.5625 127.984375 C-38.69079211 120.79828165 -38.69079211 120.79828165 -44.8203125 116.34765625 C-48.26002674 115.03967628 -51.77710643 113.99000281 -55.296875 112.92089844 C-59.45274722 111.51134305 -62.7543688 109.02190033 -66.13671875 106.296875 C-66.94367188 105.67425781 -67.750625 105.05164063 -68.58203125 104.41015625 C-81.73729779 93.52789448 -89.38736894 78.19763996 -91.07421875 61.234375 C-91.73107614 43.55893975 -86.44907393 27.52647978 -75.14453125 13.89453125 C-56.76473161 -5.79811123 -24.28462547 -13.1856746 0 0 Z M-58.13671875 22.296875 C-58.78511719 22.82023437 -59.43351562 23.34359375 -60.1015625 23.8828125 C-67.47692309 30.49965679 -72.93415088 41.51227882 -73.47265625 51.43359375 C-73.77295049 66.52255433 -70.33454532 77.87195124 -59.76171875 89.046875 C-50.93863824 97.35207904 -40.27220425 101.40497179 -28.13671875 101.796875 C-13.93885732 101.29262243 -2.93692653 95.72263501 6.73828125 85.421875 C15.56137902 74.631036 17.80017525 62.92717162 16.86328125 49.296875 C15.20723161 37.88518746 8.83243025 27.51197672 -0.13671875 20.296875 C-18.54402181 7.14435947 -40.62100507 7.97968295 -58.13671875 22.296875 Z M18.86328125 14.296875 C20.37307027 17.52573073 22.23293918 20.35453904 24.23828125 23.296875 C27.93478968 29.03760639 29.96188396 34.78166059 31.86328125 41.296875 C32.52328125 43.276875 33.18328125 45.256875 33.86328125 47.296875 C39.14328125 47.296875 44.42328125 47.296875 49.86328125 47.296875 C50.88622032 44.22805778 51.90665432 41.15801393 52.87109375 38.0703125 C55.74048897 29.34173263 59.39037036 22.71178652 64.86328125 15.296875 C57.71546681 11.47542008 50.09472125 10.93458824 42.11328125 10.984375 C41.24799805 10.98566406 40.38271484 10.98695312 39.49121094 10.98828125 C32.28951718 11.09532984 25.76977384 12.1795561 18.86328125 14.296875 Z M75.6171875 28.90625 C67.89718852 39.42883212 65.78003216 50.44871807 66.86328125 63.296875 C69.3495343 76.41297643 76.1444906 86.43292565 86.86328125 94.296875 C97.96562906 101.07206551 109.46750838 103.07791254 122.3046875 100.64453125 C134.30552776 97.34323753 143.61326784 90.40685425 150.86328125 80.296875 C157.07901226 68.26594934 159.29757826 55.07372841 155.30078125 41.921875 C150.43724061 29.37189951 141.47475827 20.10980838 129.41796875 14.3046875 C109.2960927 6.3666997 89.31494884 12.63496986 75.6171875 28.90625 Z M-214.13671875 68.296875 C-211.49671875 76.546875 -208.85671875 84.796875 -206.13671875 93.296875 C-204.15671875 92.966875 -202.17671875 92.636875 -200.13671875 92.296875 C-198.63103939 92.1643916 -197.12283714 92.05704043 -195.61328125 91.98046875 C-194.82050781 91.93857422 -194.02773437 91.89667969 -193.2109375 91.85351562 C-191.99857422 91.79454102 -191.99857422 91.79454102 -190.76171875 91.734375 C-189.93027344 91.69119141 -189.09882813 91.64800781 -188.2421875 91.60351562 C-186.20718647 91.49825695 -184.17197172 91.39714428 -182.13671875 91.296875 C-181.46241908 87.90251144 -180.79863595 84.50617307 -180.13671875 81.109375 C-179.9459375 80.14966797 -179.75515625 79.18996094 -179.55859375 78.20117188 C-179.378125 77.26982422 -179.19765625 76.33847656 -179.01171875 75.37890625 C-178.84414062 74.52530518 -178.6765625 73.6717041 -178.50390625 72.79223633 C-178.13076646 70.25642397 -178.07258879 67.85606103 -178.13671875 65.296875 C-190.59734773 64.98547904 -202.09857713 64.73001822 -214.13671875 68.296875 Z M33.86328125 65.296875 C32.51812461 68.53329887 31.41599193 71.7314167 30.48828125 75.109375 C28.04221785 83.32376701 24.17368409 89.62054177 18.86328125 96.296875 C18.12078125 97.3075 17.37828125 98.318125 16.61328125 99.359375 C7.25275269 110.40540067 -7.57042693 115.09029693 -21.13671875 118.296875 C-17.82297669 124.92435912 -13.26827382 129.98981072 -8.13671875 135.296875 C-7.46898437 136.00199219 -6.80125 136.70710938 -6.11328125 137.43359375 C7.1939597 150.40942831 26.23776682 155.9725919 44.44677734 155.76782227 C62.02305091 155.13324506 77.8660391 148.03179507 90.86328125 136.296875 C91.4975 135.73226562 92.13171875 135.16765625 92.78515625 134.5859375 C97.5958419 130.05197271 101.22555125 124.79216925 104.86328125 119.296875 C101.93776704 117.3465322 100.09428972 116.7345836 96.73828125 115.921875 C87.74492306 113.54336843 80.3633937 109.78408962 72.86328125 104.296875 C72.24453125 103.84570312 71.62578125 103.39453125 70.98828125 102.9296875 C60.32674754 94.50517202 54.28723884 81.65621631 51.44140625 68.66796875 C51.09506981 66.35550352 51.09506981 66.35550352 49.86328125 65.296875 C47.16673271 65.22367879 44.49636667 65.20444963 41.80078125 65.234375 C40.66286133 65.24114258 40.66286133 65.24114258 39.50195312 65.24804688 C37.62236254 65.2598682 35.74281226 65.27780422 33.86328125 65.296875 Z M-159.13671875 72.296875 C-160.64556088 75.73056094 -162.14225276 79.16941049 -163.63671875 82.609375 C-164.28060547 84.07407227 -164.28060547 84.07407227 -164.9375 85.56835938 C-165.54658203 86.97504883 -165.54658203 86.97504883 -166.16796875 88.41015625 C-166.54501953 89.27423096 -166.92207031 90.13830566 -167.31054688 91.02856445 C-168.30783386 93.36433604 -168.30783386 93.36433604 -168.13671875 96.296875 C-166.10959972 97.82651325 -166.10959972 97.82651325 -163.51171875 99.171875 C-153.28292411 105.00446429 -153.28292411 105.00446429 -151.13671875 109.296875 C-146.33606582 107.78655723 -143.20929264 105.06390946 -139.51171875 101.796875 C-133.41281765 96.48094093 -133.41281765 96.48094093 -130.13671875 94.296875 C-133.83950326 85.19681138 -145.65671497 77.61612926 -154.13671875 73.296875 C-155.79730253 72.93445206 -157.46372734 72.59685606 -159.13671875 72.296875 Z M-239.01171875 82.484375 C-239.90246094 83.31324219 -240.79320312 84.14210938 -241.7109375 84.99609375 C-242.51144531 85.75535156 -243.31195313 86.51460937 -244.13671875 87.296875 C-245.02359375 88.121875 -245.91046875 88.946875 -246.82421875 89.796875 C-253.03932633 96.38749308 -253.03932633 96.38749308 -257.13671875 104.296875 C-253.70876278 106.33424086 -250.2679671 108.34883699 -246.82421875 110.359375 C-245.84775391 110.94009766 -244.87128906 111.52082031 -243.86523438 112.11914062 C-242.92744141 112.66376953 -241.98964844 113.20839844 -241.0234375 113.76953125 C-240.15936279 114.27750244 -239.29528809 114.78547363 -238.4050293 115.30883789 C-236.04472037 116.63774675 -236.04472037 116.63774675 -233.13671875 115.296875 C-231.74690697 113.66916316 -231.74690697 113.66916316 -230.44921875 111.671875 C-227.22659761 107.17481679 -223.41427581 103.77103302 -219.13671875 100.296875 C-220.15085464 95.2870154 -222.88183524 91.36258127 -225.51171875 87.046875 C-226.00671875 86.20640625 -226.50171875 85.3659375 -227.01171875 84.5 C-227.49382812 83.7059375 -227.9759375 82.911875 -228.47265625 82.09375 C-228.9114209 81.36510742 -229.35018555 80.63646484 -229.80224609 79.88574219 C-230.46281006 79.09925293 -230.46281006 79.09925293 -231.13671875 78.296875 C-235.17688328 78.296875 -236.09332465 79.76556712 -239.01171875 82.484375 Z M-125.92578125 113.484375 C-127.33730469 114.16113281 -127.33730469 114.16113281 -128.77734375 114.8515625 C-129.7621875 115.32851562 -130.74703125 115.80546875 -131.76171875 116.296875 C-132.75429687 116.77382812 -133.746875 117.25078125 -134.76953125 117.7421875 C-137.22694568 118.92363674 -139.68256637 120.10866834 -142.13671875 121.296875 C-142.00539551 121.8530249 -141.87407227 122.4091748 -141.73876953 122.98217773 C-140.03359059 130.39242507 -139.08905867 137.74617995 -138.13671875 145.296875 C-129.55671875 145.296875 -120.97671875 145.296875 -112.13671875 145.296875 C-112.13671875 139.258566 -112.25210736 134.10126269 -113.38671875 128.296875 C-113.51731689 127.60916016 -113.64791504 126.92144531 -113.7824707 126.21289062 C-114.88373846 120.78772479 -116.60005591 116.19525842 -119.13671875 111.296875 C-121.83457858 111.296875 -123.49460303 112.31272285 -125.92578125 113.484375 Z M-265.13671875 122.296875 C-267.14602209 129.75661143 -267.37629878 136.66172651 -267.26171875 144.359375 C-267.22046875 148.29875 -267.17921875 152.238125 -267.13671875 156.296875 C-258.55671875 156.296875 -249.97671875 156.296875 -241.13671875 156.296875 C-240.80671875 147.386875 -240.47671875 138.476875 -240.13671875 129.296875 C-244.07609375 128.141875 -248.01546875 126.986875 -252.07421875 125.796875 C-253.3180835 125.43142578 -254.56194824 125.06597656 -255.84350586 124.68945312 C-256.81553955 124.40521484 -257.78757324 124.12097656 -258.7890625 123.828125 C-259.78929443 123.53486328 -260.78952637 123.24160156 -261.82006836 122.93945312 C-263.89663572 122.25232792 -263.89663572 122.25232792 -265.13671875 122.296875 Z M-138.13671875 163.296875 C-138.13671875 173.196875 -138.13671875 183.096875 -138.13671875 193.296875 C-129.55671875 193.296875 -120.97671875 193.296875 -112.13671875 193.296875 C-112.13671875 183.396875 -112.13671875 173.496875 -112.13671875 163.296875 C-120.71671875 163.296875 -129.29671875 163.296875 -138.13671875 163.296875 Z M23.86328125 171.296875 C23.53328125 183.836875 23.20328125 196.376875 22.86328125 209.296875 C25.85390625 209.626875 28.84453125 209.956875 31.92578125 210.296875 C32.85398682 210.40128906 33.78219238 210.50570312 34.73852539 210.61328125 C39.47961747 211.12391495 44.09520927 211.4003881 48.86328125 211.296875 C50.01464487 203.11040769 49.97743108 194.98178146 49.92578125 186.734375 C49.92075491 185.33007973 49.91619401 183.9257827 49.91210938 182.52148438 C49.90039727 179.11326251 49.8824643 175.705063 49.86328125 172.296875 C36.99328125 171.801875 36.99328125 171.801875 23.86328125 171.296875 Z M-267.13671875 173.296875 C-267.13671875 183.196875 -267.13671875 193.096875 -267.13671875 203.296875 C-258.55671875 203.296875 -249.97671875 203.296875 -241.13671875 203.296875 C-241.13671875 193.396875 -241.13671875 183.496875 -241.13671875 173.296875 C-249.71671875 173.296875 -258.29671875 173.296875 -267.13671875 173.296875 Z M-128.57421875 210.296875 C-129.40115234 210.39226562 -130.22808594 210.48765625 -131.08007812 210.5859375 C-133.09937014 210.81938166 -135.11810557 211.05763196 -137.13671875 211.296875 C-137.54109919 222.97897672 -133.35715794 234.00576332 -128.13671875 244.296875 C-124.56307516 243.72278468 -121.85287571 242.79742464 -118.7109375 241.01171875 C-117.91494141 240.56376953 -117.11894531 240.11582031 -116.29882812 239.65429688 C-115.48220703 239.18572266 -114.66558594 238.71714844 -113.82421875 238.234375 C-112.98826172 237.76193359 -112.15230469 237.28949219 -111.29101562 236.80273438 C-109.2360261 235.64019744 -107.18484138 234.47145409 -105.13671875 233.296875 C-105.32613037 232.67232422 -105.51554199 232.04777344 -105.71069336 231.40429688 C-107.93512724 224.05860405 -110.04089467 216.68013342 -112.13671875 209.296875 C-117.69567146 209.1774881 -123.05715473 209.63891733 -128.57421875 210.296875 Z M-267.13671875 220.296875 C-267.13671875 230.526875 -267.13671875 240.756875 -267.13671875 251.296875 C-258.55671875 251.296875 -249.97671875 251.296875 -241.13671875 251.296875 C-241.13671875 241.066875 -241.13671875 230.836875 -241.13671875 220.296875 C-249.71671875 220.296875 -258.29671875 220.296875 -267.13671875 220.296875 Z M19.86328125 223.296875 C19.3321875 224.38226563 18.80109375 225.46765625 18.25390625 226.5859375 C17.54058215 228.03135739 16.82702824 229.47666389 16.11328125 230.921875 C15.76523437 231.63472656 15.4171875 232.34757813 15.05859375 233.08203125 C12.92609767 237.38651407 10.61943375 241.36128788 7.86328125 245.296875 C17.5569263 253.68864657 17.5569263 253.68864657 27.86328125 261.296875 C32.34700887 256.12657658 35.97882322 250.66811793 39.23828125 244.671875 C39.75648438 243.74072876 39.75648438 243.74072876 40.28515625 242.79077148 C42.5399804 238.52971756 43.43831048 235.02012155 43.86328125 230.296875 C40.23977504 229.12553278 36.61424126 227.96059698 32.98828125 226.796875 C31.43947266 226.29607422 31.43947266 226.29607422 29.859375 225.78515625 C28.38017578 225.31142578 28.38017578 225.31142578 26.87109375 224.828125 C25.9598877 224.53486328 25.04868164 224.24160156 24.10986328 223.93945312 C21.93224495 223.2052093 21.93224495 223.2052093 19.86328125 223.296875 Z M-105.57421875 252.109375 C-106.36376953 252.75197266 -107.15332031 253.39457031 -107.96679688 254.05664062 C-109.10084961 254.98959961 -109.10084961 254.98959961 -110.2578125 255.94140625 C-110.95318115 256.51221924 -111.6485498 257.08303223 -112.36499023 257.67114258 C-114.35718412 259.3697028 -114.35718412 259.3697028 -116.13671875 262.296875 C-112.32712375 267.33898602 -108.02239838 271.17262408 -103.07421875 275.046875 C-102.47270996 275.51843018 -101.87120117 275.98998535 -101.25146484 276.47583008 C-95.72383214 281.2313818 -95.72383214 281.2313818 -89.13671875 283.296875 C-87.29308932 280.03174309 -85.46362396 276.75888938 -83.63671875 273.484375 C-83.11207031 272.55560547 -82.58742187 271.62683594 -82.046875 270.66992188 C-81.55058594 269.77724609 -81.05429687 268.88457031 -80.54296875 267.96484375 C-80.08212891 267.14266357 -79.62128906 266.3204834 -79.14648438 265.47338867 C-77.92629315 263.24320036 -77.92629315 263.24320036 -78.13671875 260.296875 C-80.35660131 258.38859035 -80.35660131 258.38859035 -83.19921875 256.546875 C-87.54447111 253.51921529 -91.28613919 250.41424256 -94.89453125 246.546875 C-95.30445313 246.134375 -95.714375 245.721875 -96.13671875 245.296875 C-99.17957229 245.296875 -103.30937051 250.24193311 -105.57421875 252.109375 Z M-6.94921875 257.984375 C-12.3315954 261.63918237 -18.08160589 263.98138345 -24.13671875 266.296875 C-23.48462109 271.76000431 -22.29143661 276.8907062 -20.76171875 282.171875 C-20.55289062 282.94273437 -20.3440625 283.71359375 -20.12890625 284.5078125 C-19.56279957 286.46847465 -18.85922132 288.38829886 -18.13671875 290.296875 C-12.83496361 292.06412671 -7.97854757 288.61326918 -3.13671875 286.296875 C2.43143035 283.29309139 7.86367935 280.18807459 12.86328125 276.296875 C11.27636449 270.96861806 7.78628714 267.18274001 4.30078125 262.984375 C3.69814453 262.24380859 3.09550781 261.50324219 2.47460938 260.74023438 C0.21846506 257.97562502 0.21846506 257.97562502 -2.13671875 255.296875 C-3.98819186 255.296875 -5.49792756 256.94624418 -6.94921875 257.984375 Z M-64.13671875 267.296875 C-65.33863859 270.89639542 -66.52074323 274.50211757 -67.69921875 278.109375 C-68.04146484 279.13353516 -68.38371094 280.15769531 -68.73632812 281.21289062 C-69.05537109 282.19580078 -69.37441406 283.17871094 -69.703125 284.19140625 C-70.00162354 285.09737549 -70.30012207 286.00334473 -70.60766602 286.93676758 C-71.37947844 289.42873174 -71.37947844 289.42873174 -70.13671875 292.296875 C-59.64970504 296.29114511 -48.14749065 295.6138162 -37.13671875 295.296875 C-36.83821257 286.48506651 -37.92685332 278.00358512 -39.13671875 269.296875 C-40.18730469 269.23628906 -41.23789062 269.17570312 -42.3203125 269.11328125 C-43.73828843 269.02876613 -45.15625677 268.94412384 -46.57421875 268.859375 C-47.26193359 268.82005859 -47.94964844 268.78074219 -48.65820312 268.74023438 C-53.84216722 268.42678538 -58.97850815 267.90163073 -64.13671875 267.296875 Z M-267.13671875 268.296875 C-267.13671875 278.196875 -267.13671875 288.096875 -267.13671875 298.296875 C-258.55671875 298.296875 -249.97671875 298.296875 -241.13671875 298.296875 C-241.13671875 288.396875 -241.13671875 278.496875 -241.13671875 268.296875 C-249.71671875 268.296875 -258.29671875 268.296875 -267.13671875 268.296875 Z M-267.13671875 315.296875 C-267.13671875 319.586875 -267.13671875 323.876875 -267.13671875 328.296875 C-258.55671875 328.296875 -249.97671875 328.296875 -241.13671875 328.296875 C-241.13671875 324.006875 -241.13671875 319.716875 -241.13671875 315.296875 C-249.71671875 315.296875 -258.29671875 315.296875 -267.13671875 315.296875 Z " fill="#000000" transform="translate(338.13671875,5.703125)"/>
<path d="M0 0 C121.44 0 242.88 0 368 0 C368 5.61 368 11.22 368 17 C352.82 17 337.64 17 322 17 C322 46.37 322 75.74 322 106 C309.63811263 103.75238412 309.63811263 103.75238412 305.41186523 102.65551758 C304.46395615 102.41219193 303.51604706 102.16886627 302.53941345 101.91816711 C301.55574295 101.66286728 300.57207245 101.40756744 299.55859375 101.14453125 C297.40709813 100.59883174 295.25539908 100.05393376 293.10351562 99.50976562 C289.76196718 98.66153586 286.42198343 97.80846915 283.08520508 96.94165039 C279.82999138 96.09827258 276.57000542 95.276065 273.30859375 94.45703125 C272.32289902 94.19565872 271.33720428 93.93428619 270.32164001 93.66499329 C259.38539017 90.95778722 250.24542628 93.21756723 239.5 95.94140625 C237.76375366 96.3721067 237.76375366 96.3721067 235.99243164 96.81150818 C232.32662257 97.72196986 228.66323731 98.64175077 225 99.5625 C221.30781465 100.48518619 217.61515315 101.40590132 213.921875 102.32420349 C211.63078278 102.89441809 209.34039383 103.46746721 207.05078125 104.04359436 C206.02210938 104.30063644 204.9934375 104.55767853 203.93359375 104.82250977 C203.02665771 105.05043716 202.11972168 105.27836456 201.18530273 105.51319885 C199 106 199 106 197 106 C197 76.63 197 47.26 197 17 C131.99 17 66.98 17 0 17 C0 11.39 0 5.78 0 0 Z M214 17 C214 39.11 214 61.22 214 84 C220.46240795 82.82501674 226.48788233 81.71291518 232.7578125 80.01953125 C234.13914137 79.65621013 235.52065756 79.29360052 236.90234375 78.93164062 C239.02143416 78.37249766 241.13885861 77.80872457 243.25341797 77.23266602 C245.3346958 76.66807681 247.42046712 76.12369288 249.5078125 75.58203125 C250.73129395 75.25436768 251.95477539 74.9267041 253.21533203 74.58911133 C260.59879892 73.43982055 267.51119312 75.19620162 274.6484375 77.06640625 C275.42764557 77.26475571 276.20685364 77.46310516 277.00967407 77.66746521 C279.46628334 78.29344845 281.92075534 78.927315 284.375 79.5625 C286.85087775 80.20035733 289.32717315 80.8364156 291.80459595 81.46824646 C293.33808121 81.85959937 294.87065934 82.25452856 296.40219116 82.65345764 C299.35169982 83.40828631 301.94154958 84 305 84 C305 61.89 305 39.78 305 17 C274.97 17 244.94 17 214 17 Z " fill="#000000" transform="translate(29,398)"/>
<path d="M0 0 C70.29 0 140.58 0 213 0 C213 5.61 213 11.22 213 17 C148.32 17 83.64 17 17 17 C17 21.95 17 26.9 17 32 C81.68 32 146.36 32 213 32 C213 37.61 213 43.22 213 49 C142.71 49 72.42 49 0 49 C0 32.83 0 16.66 0 0 Z " fill="#000000" transform="translate(0,463)"/>
<path d="M0 0 C60.72 0 121.44 0 184 0 C184 5.61 184 11.22 184 17 C123.28 17 62.56 17 0 17 C0 11.39 0 5.78 0 0 Z " fill="#000000" transform="translate(29,431)"/>
<path d="M0 0 C11.22 0 22.44 0 34 0 C34 5.61 34 11.22 34 17 C22.78 17 11.56 17 0 17 C0 11.39 0 5.78 0 0 Z " fill="#000000" transform="translate(363,431)"/>
<path d="M0 0 C5.61 0 11.22 0 17 0 C17 5.94 17 11.88 17 18 C11.39 18 5.78 18 0 18 C0 12.06 0 6.12 0 0 Z " fill="#000000" transform="translate(455,53)"/>
<path d="M0 0 C5.61 0 11.22 0 17 0 C17 5.94 17 11.88 17 18 C11.39 18 5.78 18 0 18 C0 12.06 0 6.12 0 0 Z " fill="#000000" transform="translate(423,53)"/>
<path d="M0 0 C5.61 0 11.22 0 17 0 C17 5.94 17 11.88 17 18 C11.39 18 5.78 18 0 18 C0 12.06 0 6.12 0 0 Z " fill="#000000" transform="translate(320,53)"/>
<path d="M0 0 C5.61 0 11.22 0 17 0 C17 5.94 17 11.88 17 18 C11.39 18 5.78 18 0 18 C0 12.06 0 6.12 0 0 Z " fill="#000000" transform="translate(288,53)"/>
</svg>
