<?xml version="1.0" encoding="UTF-8"?>
<svg version="1.1" xmlns="http://www.w3.org/2000/svg" width="512" height="512">
<path d="M0 0 C2.95950101 1.70966934 2.95950101 1.70966934 6.67578125 0.234375 C7.45695312 -0.06210938 8.238125 -0.35859375 9.04296875 -0.6640625 C30.45354719 -8.55217035 55.61998962 -8.74986819 76.67578125 0.359375 C80.67609103 1.81685221 83.07559044 0.73756514 86.92578125 -0.890625 C88.33537109 -1.59251953 88.33537109 -1.59251953 89.7734375 -2.30859375 C102.81758349 -8.19577468 120.38113042 -7.59008221 133.76171875 -3.0234375 C150.81389904 4.23555109 163.6933346 16.60227038 170.90234375 33.75390625 C176.99649654 49.88111547 175.91875883 67.66950688 168.86328125 83.296875 C160.34396943 99.6345426 148.17138782 109.98367219 130.86328125 116.296875 C129.83332031 116.52890625 128.80335938 116.7609375 127.7421875 117 C123.7999973 118.77585773 122.74893872 121.47950888 121.05078125 125.234375 C117.50576848 132.43561325 113.2823184 138.33786262 107.86328125 144.296875 C107.26257813 144.99039063 106.661875 145.68390625 106.04296875 146.3984375 C98.59108941 154.49550119 88.67620388 160.48017129 78.86328125 165.296875 C78.76096618 171.62811305 78.69143643 177.95913408 78.64355469 184.29101562 C78.62357141 186.44018521 78.59637531 188.58930136 78.56152344 190.73828125 C78.0618324 207.47994623 78.0618324 207.47994623 82.86328125 223.296875 C83.38148438 224.37324219 83.8996875 225.44960937 84.43359375 226.55859375 C92.24711131 238.75003697 102.11229288 245.7215126 115.61328125 250.671875 C130.1891809 253.58099427 144.35277495 250.78755812 156.78515625 242.7265625 C157.4709375 242.25476563 158.15671875 241.78296875 158.86328125 241.296875 C159.77078125 240.678125 160.67828125 240.059375 161.61328125 239.421875 C171.14273576 230.42183463 177.37731311 217.78106746 178.04833984 204.68525696 C178.13065676 201.07405133 178.14088103 197.46318729 178.13767624 193.85115433 C178.13669782 191.40869474 178.14981072 188.96665978 178.16665649 186.52426147 C178.212503 179.585056 178.23746441 172.64589501 178.24414062 165.70654297 C178.29383209 130.12944363 181.60997279 99.96938156 207.86328125 73.296875 C226.27582119 55.89730458 250.83279137 47.16916768 275.99609375 47.265625 C301.11614458 48.24879724 322.73614183 57.99513948 340.86328125 75.296875 C341.46527344 75.82410156 342.06726563 76.35132812 342.6875 76.89453125 C360.27136202 92.92084838 367.53968781 117.31500178 368.86328125 140.296875 C369.03880143 146.50157519 368.99014469 152.71048927 368.97680664 158.91699219 C368.97652407 160.77095539 368.97668386 162.6249187 368.97724915 164.47888184 C368.9775344 169.47802174 368.97168172 174.47713734 368.96467519 179.47627163 C368.95839629 184.71328544 368.95783428 189.9502999 368.95664978 195.18731689 C368.95354979 205.08922705 368.94535445 214.99112609 368.93530029 224.89303136 C368.92409767 236.17241638 368.91861827 247.45180195 368.91360486 258.73119116 C368.90317065 281.91976002 368.88484182 305.10831363 368.86328125 328.296875 C386.35328125 328.296875 403.84328125 328.296875 421.86328125 328.296875 C421.86328125 344.466875 421.86328125 360.636875 421.86328125 377.296875 C416.95386658 377.30274124 412.0444519 377.30860748 406.98626709 377.31465149 C361.95623158 377.36983815 316.92623817 377.43980153 271.89625071 377.52586128 C265.99333402 377.53712932 260.09041709 377.54826779 254.1875 377.55932617 C253.01234551 377.56152986 251.83719101 377.56373354 250.62642577 377.566004 C231.60355208 377.60136733 212.58067842 377.62623692 193.55778405 377.64722202 C174.03560558 377.66899173 154.51346973 377.70205332 134.99132752 377.74557656 C122.9471016 377.77207304 110.90292878 377.78978319 98.85867515 377.79622104 C90.59721592 377.80148103 82.33582347 377.8177186 74.07440004 377.84254066 C69.30945389 377.85653461 64.54462725 377.86573431 59.77965927 377.86188316 C55.41193095 377.8584602 51.04445739 377.86891081 46.67678121 377.89011052 C45.10188969 377.89535676 43.52697157 377.89563622 41.95208046 377.89027063 C27.53912973 377.84619182 14.78327841 379.39585818 3.640625 389.265625 C-3.3730715 396.50218662 -7.68236349 405.68146095 -8.19921875 415.80859375 C-7.91715387 427.03830193 -4.09424782 437.43395908 3.61328125 445.734375 C15.01497492 456.18049815 28.7987027 456.61186296 43.42578125 456.921875 C44.92645301 456.96013346 46.42710465 456.99918951 47.92773438 457.0390625 C51.57280148 457.13567389 55.21770019 457.21590944 58.86328125 457.296875 C58.86328125 462.906875 58.86328125 468.516875 58.86328125 474.296875 C54.00998198 474.38976111 49.15988369 474.4690603 44.30639648 474.51660156 C42.66273432 474.53646068 41.01914029 474.56355756 39.37573242 474.59863281 C19.84020616 475.00450381 4.7490672 471.31697918 -9.8828125 457.578125 C-20.52950119 446.80227371 -25.85900116 432.89974732 -26.44921875 417.859375 C-26.26319354 401.36513985 -19.81472359 386.80857632 -8.26953125 375.1015625 C2.19838069 365.23640941 16.31645933 360.16914758 30.55178642 360.17382717 C31.20197986 360.17267333 31.8521733 360.17151948 32.52206957 360.17033067 C34.69775297 360.16768672 36.87336216 360.17216781 39.04904175 360.17662048 C40.6257692 360.17618433 42.20249657 360.1753086 43.77922356 360.17403132 C48.10967636 360.17179508 52.44010442 360.17579576 56.77055407 360.18080938 C61.44124888 360.18512617 66.1119423 360.18366658 70.78263855 360.1829071 C78.87419846 360.18238265 86.96575031 360.18552127 95.0573082 360.19114494 C106.75635591 360.19927055 118.45539972 360.20187625 130.15444995 360.20313293 C149.13519541 360.20532178 168.11593657 360.21197735 187.09667969 360.22143555 C205.53515603 360.23061398 223.97363121 360.23769271 242.41210938 360.24194336 C244.11681284 360.24233744 244.11681284 360.24233744 245.85595475 360.24273949 C251.55726209 360.24404452 257.25856943 360.24530823 262.95987678 360.24655139 C310.2610146 360.2569188 357.56214765 360.2746069 404.86328125 360.296875 C404.86328125 355.346875 404.86328125 350.396875 404.86328125 345.296875 C356.34365215 345.33319568 307.82408688 345.38986108 259.304517 345.47479595 C253.57198945 345.48481301 247.83946162 345.49465721 242.10693359 345.50439453 C240.9657251 345.5063359 239.82451661 345.50827728 238.64872605 345.51027748 C220.18790517 345.54127031 201.72709671 345.55827055 183.26625472 345.57006922 C164.31357412 345.58249486 145.36095854 345.61002815 126.408319 345.65148807 C114.7203161 345.67658299 103.03242109 345.6899952 91.34439087 345.68830457 C83.3216342 345.68827474 75.29898717 345.70296387 67.27627325 345.72903928 C62.65256411 345.74363846 58.02907978 345.75192849 53.40535164 345.74267769 C49.16193938 345.73433195 44.91897689 345.744705 40.67563099 345.76921162 C39.15046725 345.77485045 37.62526023 345.7739503 36.10011011 345.76538745 C15.76774178 345.66112471 -3.00993056 351.14270602 -18.13671875 365.296875 C-32.3445778 379.36612079 -39.90459884 396.86358692 -40.51171875 416.859375 C-40.45397301 435.57787868 -33.65126249 452.37789348 -21.13671875 466.296875 C-20.60691406 466.91949219 -20.07710938 467.54210937 -19.53125 468.18359375 C-9.11083499 479.63318555 7.77688263 487.06344595 23.13009644 488.51052856 C25.43927051 488.61881675 27.74324529 488.67691408 30.0546875 488.7109375 C30.88540268 488.73030365 31.71611786 488.7496698 32.57200623 488.7696228 C35.18983127 488.82875115 37.80770191 488.87553304 40.42578125 488.921875 C42.21551252 488.96011643 44.00522661 488.9991716 45.79492188 489.0390625 C50.15094522 489.13590785 54.50681589 489.21600266 58.86328125 489.296875 C58.86328125 494.906875 58.86328125 500.516875 58.86328125 506.296875 C53.31634548 506.38966761 47.77219691 506.46900332 42.22509766 506.51660156 C40.34577211 506.53648182 38.46650642 506.56359587 36.58740234 506.59863281 C10.47929618 507.07256533 -12.48652848 499.75968404 -31.86572266 481.73364258 C-43.73430128 470.10674992 -51.67176259 455.20328133 -56.13671875 439.296875 C-56.36359375 438.49636719 -56.59046875 437.69585937 -56.82421875 436.87109375 C-62.24255985 413.27873352 -56.55995484 388.73560908 -44.1953125 368.3671875 C-29.885013 347.02393245 -9.65882516 334.19726626 15.32533455 328.76117802 C20.40670829 328.0943231 25.43680655 328.16314951 30.55636597 328.17662048 C31.74163915 328.17576606 32.92691233 328.17491163 34.14810288 328.17403132 C37.42961637 328.17267066 40.71109021 328.17578965 43.99259901 328.18080938 C47.53444891 328.18513256 51.07629701 328.18366613 54.6181488 328.1829071 C60.75186474 328.18238306 66.88557003 328.18551744 73.01928329 328.19114494 C81.88757489 328.19927604 90.75586134 328.20187682 99.62415625 328.20313293 C114.01278677 328.20532092 128.40141162 328.21197415 142.79003906 328.22143555 C156.76627575 328.23061621 170.7425109 328.23769385 184.71875 328.24194336 C186.01124807 328.24233744 186.01124807 328.24233744 187.32985722 328.24273949 C191.65262999 328.24404454 195.97540278 328.24530825 200.29817557 328.24655139 C236.1532148 328.25691612 272.00824759 328.27452756 307.86328125 328.296875 C307.84945897 303.33994977 307.8071532 278.38321233 307.73119068 253.42639542 C307.69657762 241.8377905 307.67118998 230.24930408 307.66772461 218.66064453 C307.6646796 208.55676452 307.64411691 198.45309575 307.60275668 188.34929729 C307.58147385 183.00226203 307.56880188 177.65552673 307.57712746 172.30844879 C307.58469736 167.2686087 307.56872549 162.22937492 307.5352211 157.18964577 C307.5270232 155.34671375 307.52719584 153.50372104 307.53668404 151.66079521 C307.5961225 138.83954925 306.58033183 128.46056891 297.86328125 118.296875 C288.14720334 110.37060092 279.33069053 108.24452627 266.86328125 109.296875 C263.89023104 109.88657091 261.50684158 110.82823037 258.86328125 112.296875 C258.11433594 112.71066406 257.36539062 113.12445313 256.59375 113.55078125 C248.49711807 118.47858211 243.29514477 125.09428354 240.86328125 134.296875 C239.99453926 138.7328593 239.73410164 142.93623458 239.72143555 147.45361328 C239.71796112 148.14412781 239.71448669 148.83464233 239.71090698 149.54608154 C239.70358709 151.03886242 239.69822178 152.53165392 239.69461632 154.02444839 C239.68737585 156.40805777 239.67164746 158.79147002 239.65327454 161.17501831 C239.60120736 167.95047028 239.55303486 174.72581782 239.53735352 181.50146484 C239.43193161 221.00462188 233.56657483 253.27950731 204.92578125 282.546875 C183.37657595 303.96692103 154.33452288 312.7370494 124.5949707 312.66259766 C98.85158484 312.2938927 75.36581394 303.13694589 55.86328125 286.296875 C54.76113281 285.41128906 54.76113281 285.41128906 53.63671875 284.5078125 C31.12092339 265.81095063 19.75155752 237.27357464 17.06738281 208.82498169 C16.47245222 201.45586609 16.37913227 194.06068481 16.23828125 186.671875 C16.19994281 184.97133769 16.16088306 183.27081648 16.12109375 181.5703125 C16.02689372 177.47930325 15.94226941 173.38820505 15.86328125 169.296875 C14.86385498 168.91233154 13.86442871 168.52778809 12.8347168 168.1315918 C-8.95163646 159.65302035 -27.33975742 146.14826179 -37.38671875 124.359375 C-40.00736341 119.26367705 -41.99965975 117.34140614 -47.38671875 115.359375 C-49.63603838 114.66965227 -51.8860243 113.98209813 -54.13671875 113.296875 C-68.28704694 107.11802549 -79.91921957 96.00185853 -85.703125 81.5625 C-91.70062558 65.54995555 -92.95899597 47.32317119 -86.13671875 31.296875 C-77.8519867 13.91181551 -65.06024913 3.67220718 -47.6953125 -3.74609375 C-33.11125813 -8.73229533 -13.50375478 -7.33205116 0 0 Z M-64.3828125 28.90234375 C-72.19266443 39.56479193 -74.41492934 51.29747335 -73.13671875 64.296875 C-70.56345773 76.9877305 -63.12962211 87.64553003 -52.51171875 94.984375 C-41.75986071 101.22872332 -29.86133572 102.98004882 -17.71484375 100.63671875 C-5.26990433 97.26256264 4.66090357 89.82189085 11.3984375 78.78125 C17.47852861 67.22375904 18.78966089 55.22962629 15.30078125 42.546875 C11.15832498 30.62645013 2.93279782 21.2484595 -8.26171875 15.421875 C-28.61924535 5.62010293 -50.22001231 12.10726554 -64.3828125 28.90234375 Z M18.86328125 14.296875 C21.35959409 18.78418817 21.35959409 18.78418817 24.1015625 23.12109375 C27.9500663 28.80448791 29.86962296 34.76742644 31.86328125 41.296875 C32.52328125 43.276875 33.18328125 45.256875 33.86328125 47.296875 C39.14328125 47.296875 44.42328125 47.296875 49.86328125 47.296875 C51.33109707 42.90217188 51.33109707 42.90217188 52.6875 38.47265625 C54.69302213 31.82085662 57.36498712 26.41227599 61.27734375 20.671875 C62.66440616 18.5946978 63.80715805 16.55551471 64.86328125 14.296875 C49.82741037 9.68733794 33.89915213 9.68733794 18.86328125 14.296875 Z M75.6171875 28.90625 C67.33405752 40.19639598 65.30088595 52.53055099 67.29296875 66.2578125 C70.03423252 78.06893666 77.24925475 87.15461615 86.86328125 94.296875 C97.8976306 101.12448299 109.52047641 103.06787206 122.3046875 100.64453125 C135.04418081 97.14004254 145.14196512 89.30835309 152.2421875 78.125 C157.79830521 67.54582385 158.73462356 55.07137869 155.953125 43.515625 C151.1203968 30.21396796 142.17919456 20.44898141 129.41796875 14.3046875 C109.2960927 6.3666997 89.31494884 12.63496986 75.6171875 28.90625 Z M33.86328125 65.296875 C32.8276443 68.38972742 31.80410369 71.48393814 30.8203125 74.59375 C28.19649543 82.50997625 25.07640128 88.79800788 19.86328125 95.296875 C19.39148438 95.93109375 18.9196875 96.5653125 18.43359375 97.21875 C8.76447538 109.56462995 -6.43654891 114.8222894 -21.13671875 118.296875 C-10.9791782 135.99065532 4.59532423 147.7332971 23.98828125 153.734375 C43.86724244 158.50780539 63.46542067 154.75302976 80.99707031 144.50341797 C86.23152171 141.11923968 90.5709172 136.77899295 94.86328125 132.296875 C95.58515625 131.54792969 96.30703125 130.79898438 97.05078125 130.02734375 C100.44029221 126.3341891 102.69801156 122.85229402 104.86328125 118.296875 C103.95707031 118.05453125 103.05085938 117.8121875 102.1171875 117.5625 C83.31425336 112.38920595 68.0998358 104.17575232 58.17578125 86.734375 C54.93541575 80.65868968 52.5996516 74.87984434 51.29296875 68.1171875 C51.02955314 66.28789876 51.02955314 66.28789876 49.86328125 65.296875 C47.16673271 65.22367879 44.49636667 65.20444963 41.80078125 65.234375 C40.66286133 65.24114258 40.66286133 65.24114258 39.50195312 65.24804688 C37.62236254 65.2598682 35.74281226 65.27780422 33.86328125 65.296875 Z M261.86328125 65.296875 C262.36618165 71.80010416 263.07886948 78.10118443 264.42578125 84.484375 C264.56435547 85.15017578 264.70292969 85.81597656 264.84570312 86.50195312 C265.17940402 88.10141604 265.52048943 89.69933575 265.86328125 91.296875 C267.70792969 91.38775391 267.70792969 91.38775391 269.58984375 91.48046875 C271.22266552 91.56492505 272.85547752 91.64957047 274.48828125 91.734375 C275.29652344 91.77369141 276.10476563 91.81300781 276.9375 91.85351562 C277.73027344 91.89541016 278.52304687 91.93730469 279.33984375 91.98046875 C280.42386475 92.03545532 280.42386475 92.03545532 281.52978516 92.09155273 C284.32571995 92.33756457 287.09473282 92.83545026 289.86328125 93.296875 C292.50328125 85.046875 295.14328125 76.796875 297.86328125 68.296875 C285.82513963 64.73001822 274.32391023 64.98547904 261.86328125 65.296875 Z M216.0390625 90.07421875 C215.32105469 90.80769531 214.60304688 91.54117188 213.86328125 92.296875 C215.25733588 96.47903888 218.28289144 98.22578061 221.67578125 100.796875 C222.30548828 101.28285156 222.93519531 101.76882812 223.58398438 102.26953125 C224.80057443 103.20654814 226.0206611 104.13904719 227.24462891 105.06640625 C228.571372 106.07497114 229.88185802 107.10488884 231.1875 108.140625 C232.79831664 109.48617909 232.79831664 109.48617909 234.86328125 109.296875 C235.44851563 108.54921875 236.03375 107.8015625 236.63671875 107.03125 C239.02733341 104.09540744 241.268669 102.50814823 244.48828125 100.546875 C245.44992187 99.95390625 246.4115625 99.3609375 247.40234375 98.75 C248.86359909 97.88716352 250.34545281 97.05578922 251.86328125 96.296875 C251.2859421 90.6334529 249.15711757 86.02523552 246.80078125 80.921875 C246.23520508 79.67470703 246.23520508 79.67470703 245.65820312 78.40234375 C244.73284769 76.36421912 243.80109755 74.3292883 242.86328125 72.296875 C233.15578618 72.296875 222.54757166 83.67373464 216.0390625 90.07421875 Z M314.86328125 78.296875 C313.04212494 81.20821995 311.23290996 84.12680581 309.42578125 87.046875 C308.90951172 87.871875 308.39324219 88.696875 307.86132812 89.546875 C307.36826172 90.34609375 306.87519531 91.1453125 306.3671875 91.96875 C305.91158447 92.7019043 305.45598145 93.43505859 304.98657227 94.19042969 C303.89468028 96.23799413 303.31350019 98.03010104 302.86328125 100.296875 C303.52714844 100.86535156 304.19101562 101.43382813 304.875 102.01953125 C309.94632162 106.4541614 314.23496871 110.61251868 317.86328125 116.296875 C322.93962951 114.4979247 327.50041736 111.80661045 332.17578125 109.171875 C333.4297168 108.46998047 333.4297168 108.46998047 334.70898438 107.75390625 C336.76194358 106.6042491 338.81330327 105.45183698 340.86328125 104.296875 C340.0879715 102.86797649 339.30850926 101.44133066 338.52734375 100.015625 C338.09373535 99.22091797 337.66012695 98.42621094 337.21337891 97.60742188 C333.0112998 90.41601561 324.81211331 80.98598318 316.70166016 78.68310547 C316.09499512 78.55564941 315.48833008 78.42819336 314.86328125 78.296875 Z M202.86328125 111.296875 C199.99311008 116.83927451 198.27649181 122.17154164 197.11328125 128.296875 C196.98590576 128.94849609 196.85853027 129.60011719 196.72729492 130.27148438 C195.80427463 135.47196309 195.86328125 139.84325942 195.86328125 145.296875 C204.44328125 145.296875 213.02328125 145.296875 221.86328125 145.296875 C222.80670513 139.26934668 222.80670513 139.26934668 223.74780273 133.24145508 C223.86712158 132.48243896 223.98644043 131.72342285 224.109375 130.94140625 C224.22982178 130.17159424 224.35026855 129.40178223 224.47436523 128.60864258 C224.88635046 126.15974859 225.36471783 123.72948822 225.86328125 121.296875 C222.40794811 119.62393493 218.94854132 117.95959737 215.48828125 116.296875 C214.5034375 115.81992188 213.51859375 115.34296875 212.50390625 114.8515625 C211.56289063 114.40039062 210.621875 113.94921875 209.65234375 113.484375 C208.78303223 113.06542969 207.9137207 112.64648438 207.01806641 112.21484375 C204.94697819 111.16623144 204.94697819 111.16623144 202.86328125 111.296875 Z M342.515625 123.828125 C341.54359131 124.11236328 340.57155762 124.39660156 339.57006836 124.68945312 C338.32620361 125.05490234 337.08233887 125.42035156 335.80078125 125.796875 C331.86140625 126.951875 327.92203125 128.106875 323.86328125 129.296875 C324.19328125 138.206875 324.52328125 147.116875 324.86328125 156.296875 C333.44328125 156.296875 342.02328125 156.296875 350.86328125 156.296875 C350.92515625 150.3878125 350.92515625 150.3878125 350.98828125 144.359375 C351.01559326 142.52451538 351.01559326 142.52451538 351.04345703 140.65258789 C351.07592697 134.19997228 350.54265471 128.53171427 348.86328125 122.296875 C346.7293068 122.296875 344.53652723 123.23560916 342.515625 123.828125 Z M195.86328125 163.296875 C195.86328125 173.196875 195.86328125 183.096875 195.86328125 193.296875 C204.44328125 193.296875 213.02328125 193.296875 221.86328125 193.296875 C221.86328125 183.396875 221.86328125 173.496875 221.86328125 163.296875 C213.28328125 163.296875 204.70328125 163.296875 195.86328125 163.296875 Z M48.90234375 171.515625 C48.01933594 171.56074219 47.13632813 171.60585937 46.2265625 171.65234375 C45.32292969 171.70003906 44.41929687 171.74773437 43.48828125 171.796875 C42.56144531 171.84457031 41.63460937 171.89226562 40.6796875 171.94140625 C38.40747772 172.05853047 36.13535034 172.17705761 33.86328125 172.296875 C33.83831653 176.40453142 33.82029759 180.51215764 33.80834961 184.61987305 C33.80336168 186.01343557 33.79656894 187.40699298 33.7878418 188.80053711 C33.7416933 196.36617578 33.80769667 203.79141926 34.86328125 211.296875 C37.32178009 211.15351341 39.78005115 211.00722187 42.23828125 210.859375 C42.91761719 210.82005859 43.59695312 210.78074219 44.296875 210.74023438 C49.8472488 210.40306213 55.31787667 209.85141546 60.86328125 209.296875 C60.53328125 196.756875 60.20328125 184.216875 59.86328125 171.296875 C56.17323789 171.296875 52.57473653 171.32485135 48.90234375 171.515625 Z M324.86328125 173.296875 C324.86328125 183.196875 324.86328125 193.096875 324.86328125 203.296875 C333.44328125 203.296875 342.02328125 203.296875 350.86328125 203.296875 C350.86328125 193.396875 350.86328125 183.496875 350.86328125 173.296875 C342.28328125 173.296875 333.70328125 173.296875 324.86328125 173.296875 Z M195.86328125 209.296875 C194.88259911 212.54641966 193.90400113 215.79658835 192.92578125 219.046875 C192.64798828 219.96726563 192.37019531 220.88765625 192.08398438 221.8359375 C191.81650391 222.72539062 191.54902344 223.61484375 191.2734375 224.53125 C191.02730713 225.34819336 190.78117676 226.16513672 190.52758789 227.00683594 C189.9221454 229.09395486 189.37430975 231.1849066 188.86328125 233.296875 C192.12841316 235.14050443 195.40126687 236.96996979 198.67578125 238.796875 C199.60455078 239.32152344 200.53332031 239.84617188 201.49023438 240.38671875 C202.38291016 240.88300781 203.27558594 241.37929687 204.1953125 241.890625 C205.01749268 242.35146484 205.83967285 242.81230469 206.68676758 243.28710938 C208.91695589 244.5073006 208.91695589 244.5073006 211.86328125 244.296875 C217.08372044 234.00576332 221.26766169 222.97897672 220.86328125 211.296875 C218.00961771 210.95866303 215.15547529 210.6261772 212.30078125 210.296875 C211.50091797 210.20148438 210.70105469 210.10609375 209.87695312 210.0078125 C205.16875958 209.46973324 200.6018086 209.19510797 195.86328125 209.296875 Z M324.86328125 220.296875 C324.86328125 230.526875 324.86328125 240.756875 324.86328125 251.296875 C333.44328125 251.296875 342.02328125 251.296875 350.86328125 251.296875 C350.86328125 241.066875 350.86328125 230.836875 350.86328125 220.296875 C342.28328125 220.296875 333.70328125 220.296875 324.86328125 220.296875 Z M56.85546875 224.828125 C55.86933594 225.14394531 54.88320312 225.45976562 53.8671875 225.78515625 C52.83464844 226.11902344 51.80210937 226.45289063 50.73828125 226.796875 C49.69800781 227.13074219 48.65773437 227.46460938 47.5859375 227.80859375 C45.01087899 228.6354474 42.4367151 229.46498137 39.86328125 230.296875 C40.34290468 236.27251118 42.1930015 240.5677461 45.05078125 245.796875 C45.42525391 246.51746094 45.79972656 247.23804688 46.18554688 247.98046875 C48.86264629 252.97350746 52.01353431 257.14707304 55.86328125 261.296875 C62.77963876 256.25360316 69.32310468 250.81242391 75.86328125 245.296875 C75.41597656 244.63042969 74.96867187 243.96398437 74.5078125 243.27734375 C70.28879439 236.84536518 66.83954897 230.38779857 63.86328125 223.296875 C61.29317832 223.296875 59.30538005 224.0396478 56.85546875 224.828125 Z M179.86328125 245.296875 C178.51197401 246.65421487 177.18280945 248.03362138 175.86328125 249.421875 C171.57361928 253.78039189 167.08820087 257.14710076 161.86328125 260.296875 C162.43737157 263.87051859 163.36273161 266.58071804 165.1484375 269.72265625 C165.59638672 270.51865234 166.04433594 271.31464844 166.50585938 272.13476562 C166.97443359 272.95138672 167.44300781 273.76800781 167.92578125 274.609375 C168.63444336 275.86331055 168.63444336 275.86331055 169.35742188 277.14257812 C170.51995881 279.19756765 171.68870216 281.24875237 172.86328125 283.296875 C183.3152006 279.59908404 194.1661486 270.86805785 199.86328125 261.296875 C190.75777857 251.36208349 190.75777857 251.36208349 179.86328125 245.296875 Z M85.86328125 255.296875 C83.53958035 258.03758165 81.23137056 260.79092276 78.92578125 263.546875 C77.93674805 264.71283203 77.93674805 264.71283203 76.92773438 265.90234375 C76.29931641 266.65644531 75.67089844 267.41054688 75.0234375 268.1875 C74.44215088 268.87875977 73.86086426 269.57001953 73.26196289 270.28222656 C71.8419094 272.32765881 71.28564261 273.86292815 70.86328125 276.296875 C84.88621307 285.95338229 84.88621307 285.95338229 100.86328125 291.296875 C105.91188037 279.11887359 105.91188037 279.11887359 107.86328125 266.296875 C107.02925781 265.92175781 106.19523437 265.54664063 105.3359375 265.16015625 C103.64791016 264.39251953 103.64791016 264.39251953 101.92578125 263.609375 C100.82363281 263.11050781 99.72148437 262.61164063 98.5859375 262.09765625 C94.2245115 260.05297331 90.04956421 257.67486431 85.86328125 255.296875 Z M324.86328125 268.296875 C324.86328125 278.196875 324.86328125 288.096875 324.86328125 298.296875 C333.44328125 298.296875 342.02328125 298.296875 350.86328125 298.296875 C350.86328125 288.396875 350.86328125 278.496875 350.86328125 268.296875 C342.28328125 268.296875 333.70328125 268.296875 324.86328125 268.296875 Z M141.6328125 267.76171875 C137.94927366 268.4734886 134.29207262 268.65542614 130.55078125 268.859375 C129.43993164 268.92415039 129.43993164 268.92415039 128.30664062 268.99023438 C126.49236661 269.09557932 124.67784575 269.19665816 122.86328125 269.296875 C121.65341582 278.00358512 120.56477507 286.48506651 120.86328125 295.296875 C137.62516035 295.95248065 137.62516035 295.95248065 153.86328125 292.296875 C155.05206538 288.73052262 154.58341811 287.69307985 153.4296875 284.19140625 C153.11064453 283.20849609 152.79160156 282.22558594 152.46289062 281.21289062 C151.94952148 279.67665039 151.94952148 279.67665039 151.42578125 278.109375 C150.91821289 276.55573242 150.91821289 276.55573242 150.40039062 274.97070312 C149.56257377 272.4100516 148.71659769 269.8523948 147.86328125 267.296875 C144.13619334 267.16085985 144.13619334 267.16085985 141.6328125 267.76171875 Z M324.86328125 315.296875 C324.86328125 319.586875 324.86328125 323.876875 324.86328125 328.296875 C333.44328125 328.296875 342.02328125 328.296875 350.86328125 328.296875 C350.86328125 324.006875 350.86328125 319.716875 350.86328125 315.296875 C342.28328125 315.296875 333.70328125 315.296875 324.86328125 315.296875 Z " fill="#000000" transform="translate(90.13671875,5.703125)"/>
<path d="M0 0 C121.44 0 242.88 0 368 0 C368 5.61 368 11.22 368 17 C302.99 17 237.98 17 171 17 C171 46.37 171 75.74 171 106 C162.29692796 104.25938559 153.79961546 102.5486289 145.26171875 100.265625 C143.35110833 99.76877356 141.44029498 99.27270195 139.52929688 98.77734375 C136.59377596 98.01249785 133.65993961 97.2426351 130.72924805 96.45947266 C127.84801128 95.69200356 124.96187769 94.94600964 122.07421875 94.203125 C120.77855232 93.84858246 120.77855232 93.84858246 119.45671082 93.48687744 C109.00606508 90.84047802 99.78532556 93.33568748 89.53515625 95.94140625 C87.80246742 96.3721067 87.80246742 96.3721067 86.03477478 96.81150818 C82.37567268 97.72193797 78.71897297 98.64157302 75.0625 99.5625 C71.38074467 100.48576171 67.69851205 101.40699658 64.01524353 102.32420349 C61.73056827 102.89352159 59.44680969 103.46653363 57.16407776 104.04359436 C55.62118324 104.42915749 55.62118324 104.42915749 54.04711914 104.82250977 C52.69004601 105.16440086 52.69004601 105.16440086 51.30555725 105.51319885 C49 106 49 106 46 106 C46 76.63 46 47.26 46 17 C30.82 17 15.64 17 0 17 C0 11.39 0 5.78 0 0 Z M63 17 C63 39.11 63 61.22 63 84 C69.46240795 82.82501674 75.48788233 81.71291518 81.7578125 80.01953125 C83.13914137 79.65621013 84.52065756 79.29360052 85.90234375 78.93164062 C88.02143416 78.37249766 90.13885861 77.80872457 92.25341797 77.23266602 C94.3346958 76.66807681 96.42046712 76.12369288 98.5078125 75.58203125 C99.73129395 75.25436768 100.95477539 74.9267041 102.21533203 74.58911133 C109.59879892 73.43982055 116.51119312 75.19620162 123.6484375 77.06640625 C124.42764557 77.26475571 125.20685364 77.46310516 126.00967407 77.66746521 C128.46628334 78.29344845 130.92075534 78.927315 133.375 79.5625 C135.85087775 80.20035733 138.32717315 80.8364156 140.80459595 81.46824646 C142.33808121 81.85959937 143.87065934 82.25452856 145.40219116 82.65345764 C148.35169982 83.40828631 150.94154958 84 154 84 C154 61.89 154 39.78 154 17 C123.97 17 93.94 17 63 17 Z " fill="#000000" transform="translate(115,398)"/>
<path d="M0 0 C70.29 0 140.58 0 213 0 C213 16.17 213 32.34 213 49 C142.71 49 72.42 49 0 49 C0 43.39 0 37.78 0 32 C64.68 32 129.36 32 196 32 C196 27.05 196 22.1 196 17 C131.32 17 66.64 17 0 17 C0 11.39 0 5.78 0 0 Z " fill="#000000" transform="translate(299,463)"/>
<path d="M0 0 C60.72 0 121.44 0 184 0 C184 5.61 184 11.22 184 17 C123.28 17 62.56 17 0 17 C0 11.39 0 5.78 0 0 Z " fill="#000000" transform="translate(299,431)"/>
<path d="M0 0 C11.22 0 22.44 0 34 0 C34 5.61 34 11.22 34 17 C22.78 17 11.56 17 0 17 C0 11.39 0 5.78 0 0 Z " fill="#000000" transform="translate(115,431)"/>
<path d="M0 0 C5.61 0 11.22 0 17 0 C17 5.94 17 11.88 17 18 C11.39 18 5.78 18 0 18 C0 12.06 0 6.12 0 0 Z " fill="#000000" transform="translate(207,53)"/>
<path d="M0 0 C5.61 0 11.22 0 17 0 C17 5.94 17 11.88 17 18 C11.39 18 5.78 18 0 18 C0 12.06 0 6.12 0 0 Z " fill="#000000" transform="translate(175,53)"/>
<path d="M0 0 C5.61 0 11.22 0 17 0 C17 5.94 17 11.88 17 18 C11.39 18 5.78 18 0 18 C0 12.06 0 6.12 0 0 Z " fill="#000000" transform="translate(72,53)"/>
<path d="M0 0 C5.61 0 11.22 0 17 0 C17 5.94 17 11.88 17 18 C11.39 18 5.78 18 0 18 C0 12.06 0 6.12 0 0 Z " fill="#000000" transform="translate(40,53)"/>
</svg>
