<?xml version="1.0" encoding="UTF-8"?>
<svg version="1.1" xmlns="http://www.w3.org/2000/svg" width="512" height="512">
<path d="M0 0 C1.56143586 -0.00462113 3.12286735 -0.0109821 4.68428993 -0.01890898 C8.93135645 -0.03545932 13.17805902 -0.02742186 17.42512608 -0.0149641 C22.0223532 -0.00585674 26.61952082 -0.01991134 31.21673584 -0.03088379 C40.20545632 -0.04861328 49.19404274 -0.04485394 58.18276834 -0.03323323 C65.49207561 -0.02417717 72.80134547 -0.02298428 80.11065674 -0.02732849 C81.15338009 -0.02794142 82.19610345 -0.02855436 83.27042449 -0.02918586 C85.38910152 -0.03046484 87.50777854 -0.0317617 89.62645555 -0.03307623 C109.46480026 -0.04446571 129.30307088 -0.03139396 149.14140344 -0.00987476 C166.14101828 0.00799472 183.14052384 0.00489016 200.14013672 -0.0135498 C219.91045872 -0.03498538 239.68071589 -0.04336723 259.4510479 -0.03110075 C261.56166457 -0.02982664 263.67228126 -0.02856915 265.78289795 -0.02732849 C267.34034522 -0.02640284 267.34034522 -0.02640284 268.92925608 -0.02545848 C276.22460216 -0.02201364 283.5199069 -0.02781521 290.81524658 -0.0372467 C299.71326199 -0.04849796 308.61113635 -0.04536112 317.50913572 -0.02412373 C322.0437238 -0.01365528 326.57807725 -0.00941921 331.11266327 -0.02272034 C335.27276367 -0.0347379 339.43241444 -0.02792952 343.5924747 -0.00681013 C345.08824117 -0.00238335 346.58404653 -0.00452065 348.07978749 -0.01431328 C361.23538226 -0.09375993 373.59317301 2.06905235 385.32177734 8.32043457 C385.98604736 8.66372803 386.65031738 9.00702148 387.3347168 9.36071777 C394.81852691 13.33434945 401.17307785 18.30120762 406.94677734 24.50793457 C407.61322266 25.16922363 408.27966797 25.8305127 408.96630859 26.51184082 C421.42533814 39.39536882 429.0136775 56.9349847 429.10740662 74.92010498 C429.11249444 75.65714999 429.11758226 76.394195 429.12282425 77.15357471 C429.13849524 79.61837257 429.14705954 82.08314122 429.15551758 84.54797363 C429.16506021 86.3173389 429.17495155 88.08670232 429.18516541 89.85606384 C429.21649761 95.66187336 429.23680852 101.46769699 429.25537109 107.27355957 C429.25866842 108.26217452 429.26196574 109.25078947 429.26536298 110.26936245 C429.29613663 119.59645866 429.32283671 128.92355819 429.33978176 138.25069046 C429.36169225 150.16974544 429.40368506 162.08835025 429.47321934 174.00722528 C429.52048645 182.39465594 429.54471876 190.78196524 429.55197865 199.16952491 C429.55692985 204.17614379 429.57196095 209.1822547 429.61172295 214.18872833 C429.64865165 218.90030229 429.65697861 223.61107938 429.64371681 228.32277107 C429.64377065 230.04768885 429.65402325 231.77264253 429.67546844 233.49742699 C429.86038332 249.21530066 429.86038332 249.21530066 424.52774143 255.90620041 C419.59519461 260.90354906 415.98190901 261.78371286 409.07177734 262.13293457 C403.24861386 261.95328378 399.52559509 260.88650217 394.81396484 257.50402832 C387.77655068 249.98076758 388.37823671 242.2387865 388.43261719 232.48181152 C388.42715239 230.84509116 388.41990864 229.20837592 388.411026 227.57167053 C388.39571502 224.05492254 388.39287622 220.53846618 388.39979172 217.02169228 C388.41060563 211.45190222 388.39316179 205.88241499 388.37197876 200.31266785 C388.34173589 191.4944403 388.33002634 182.67630274 388.32640231 173.85802764 C388.31975842 158.08858535 388.29056792 142.3192065 388.24130595 126.54984063 C388.22488586 121.02275843 388.21937623 115.49580711 388.22289634 109.96870291 C388.22333617 106.51665278 388.21572728 103.06465123 388.20622063 99.61261559 C388.20355821 98.02283297 388.20425449 96.43304026 388.2087307 94.84326172 C388.25046327 78.90753015 387.32480496 64.55285972 375.96630859 52.32824707 C364.01333073 41.55438308 349.93264865 41.35558165 334.70220947 41.3742218 C333.25192701 41.37235179 331.80164506 41.37005033 330.3513639 41.36735648 C326.37924629 41.36125559 322.40714978 41.36137005 318.43502855 41.36255085 C314.14587106 41.36275529 309.85672027 41.35723197 305.56756592 41.35249329 C297.16915794 41.34419554 288.77075698 41.34143884 280.37234524 41.34088091 C273.5438809 41.34040533 266.71541887 41.33834849 259.88695526 41.33518028 C240.51619723 41.32637608 221.14544474 41.32176054 201.7746847 41.32251076 C200.20906489 41.32257069 200.20906489 41.32257069 198.61181641 41.32263184 C197.56679174 41.32267272 196.52176708 41.3227136 195.44507501 41.32275572 C178.51138152 41.32316211 161.57771027 41.31359355 144.64402321 41.29949347 C127.24603949 41.28512138 109.84806662 41.27822375 92.45007682 41.27908725 C82.68670191 41.27941893 72.92335033 41.27668441 63.15998077 41.26590919 C54.84695076 41.25679324 46.53395464 41.25463794 38.22092178 41.26141862 C33.98249814 41.26467829 29.74413947 41.26476049 25.50572205 41.25606537 C21.61948552 41.24817499 17.73336524 41.24965756 13.84713146 41.2583495 C12.447435 41.25987892 11.04772976 41.25808956 9.64804366 41.25248943 C-5.83582735 41.19468241 -19.46357726 42.55293004 -31.23291016 53.48840332 C-41.0844009 64.41806151 -42.20904429 77.24885157 -42.18693542 91.29779053 C-42.18920098 92.3619663 -42.19146654 93.42614208 -42.19380075 94.5225656 C-42.20011404 98.076619 -42.1993131 101.63063401 -42.19848633 105.18469238 C-42.20147949 107.73779855 -42.20488238 110.29090427 -42.20866394 112.8440094 C-42.21657581 119.05264384 -42.21971791 125.26126431 -42.22027632 131.46990332 C-42.22075241 136.51966826 -42.2228118 141.56943008 -42.22597694 146.61919403 C-42.23477838 160.95423738 -42.23939714 175.28927327 -42.23864647 189.62431934 C-42.23858654 190.78221425 -42.23858654 190.78221425 -42.23852539 191.96350098 C-42.23846407 193.12281905 -42.23846407 193.12281905 -42.23840151 194.3055577 C-42.23799522 206.82585026 -42.24756181 219.34611272 -42.26166376 231.86639658 C-42.27604837 244.7398112 -42.28293279 257.61321116 -42.28206998 270.48663402 C-42.28173872 277.70695566 -42.28445447 284.92724574 -42.29524803 292.14756012 C-42.30533805 298.94046776 -42.30499641 305.7332979 -42.2977314 312.52621269 C-42.29668768 315.01419357 -42.29903576 317.50217863 -42.30509186 319.99015236 C-42.31284489 323.39689376 -42.30814501 326.80340731 -42.30046082 330.21014404 C-42.30560438 331.18527049 -42.31074794 332.16039694 -42.31604737 333.16507268 C-42.24705659 347.08873626 -39.7813088 359.23876343 -30.07275391 369.68762207 C-19.22756705 379.46297425 -6.49412621 380.66475522 7.45849609 380.63391113 C8.99179062 380.63671333 8.99179062 380.63671333 10.55606079 380.63957214 C12.76365915 380.64355855 14.9712616 380.64564936 17.17886353 380.64603424 C21.87902354 380.64946927 26.57904761 380.67085045 31.27915955 380.69126511 C40.01766877 380.72920136 48.75602773 380.76054586 57.49462891 380.75842285 C63.58595673 380.75763539 69.67677906 380.78100743 75.76797485 380.82030487 C78.08352383 380.83075392 80.39913122 380.83229704 82.71469116 380.82465363 C85.95537002 380.81501932 89.1945179 380.83623694 92.43505859 380.86437988 C93.38490631 380.8541832 94.33475403 380.84398651 95.31338501 380.83348083 C103.13450434 380.95494161 107.97299317 383.52952553 113.45849609 389.02355957 C114.17650391 389.92590332 114.89451172 390.82824707 115.63427734 391.75793457 C116.24855591 392.5212207 116.24855591 392.5212207 116.87524414 393.29992676 C120.98101498 398.44263173 124.94314152 403.70247593 128.91821289 408.94641113 C132.6671569 413.88081576 136.51507818 418.71821594 140.44677734 423.50793457 C145.52895913 429.69920704 150.42405057 436.01133918 155.25415039 442.40075684 C159.39694056 447.85688204 163.73448997 453.10517953 168.21630859 458.28527832 C169.94677734 460.50793457 169.94677734 460.50793457 169.94677734 462.50793457 C175.61736016 461.24687713 178.16547806 458.43104682 181.50927734 453.94543457 C182.02176025 453.28213135 182.53424316 452.61882812 183.06225586 451.9354248 C184.70456655 449.80333272 186.32661635 447.6568914 187.94677734 445.50793457 C189.5517794 443.40009033 191.15965365 441.29445815 192.76757812 439.18884277 C193.8508978 437.76933736 194.93258854 436.3485874 196.01269531 434.92663574 C200.32029904 429.27202262 204.77440558 423.74984097 209.27807617 418.25085449 C212.60888899 414.17660627 215.87527473 410.06332068 219.07177734 405.88293457 C219.86455078 404.85039551 220.65732422 403.81785645 221.47412109 402.75402832 C223.25491929 400.42584479 225.01128883 398.08057709 226.76318359 395.73059082 C227.71988447 394.46862154 228.67690851 393.20689719 229.63427734 391.94543457 C230.0617627 391.36132812 230.48924805 390.77722168 230.9296875 390.17541504 C231.35169434 389.62385742 231.77370117 389.0722998 232.20849609 388.50402832 C232.7492981 387.77977661 232.7492981 387.77977661 233.30102539 387.04089355 C239.25057905 381.49909746 244.56070347 380.92702336 252.37329102 380.99377441 C253.39866974 380.98664932 254.42404846 380.97952423 255.48049927 380.97218323 C258.858779 380.95293975 262.23642989 380.96117753 265.61474609 380.96887207 C267.97496957 380.95895952 270.33518531 380.94701616 272.69538879 380.93313599 C278.9066598 380.9007811 285.1177546 380.89038396 291.32910156 380.8862915 C301.25193744 380.87753756 311.17462839 380.84180065 321.09734535 380.79411697 C324.54926177 380.78160935 328.00099233 380.78228371 331.45292664 380.78439331 C333.5930495 380.77780575 335.73317113 380.77079807 337.87329102 380.76330566 C338.81967941 380.76742966 339.76606781 380.77155365 340.74113464 380.77580261 C354.61269519 380.69345024 366.72095846 378.19573997 377.12646484 368.52746582 C384.10416329 360.78611368 386.79401564 352.38572818 387.69677734 342.13293457 C388.79677093 333.51205462 391.38341514 328.55163978 397.94677734 322.94543457 C403.51217573 320.2864109 409.99037705 320.62525534 415.94677734 321.50793457 C421.63331267 323.78094233 425.22839937 327.05550628 428.15722656 332.48034668 C429.62787642 336.25701554 429.53624832 340.00179452 429.44677734 344.00793457 C429.43324219 344.88868652 429.41970703 345.76943848 429.40576172 346.67687988 C428.86160966 364.10872786 421.75671801 381.59007532 409.94677734 394.50793457 C409.14626953 395.39996582 408.34576172 396.29199707 407.52099609 397.21105957 C398.12751246 407.16189897 386.98073033 414.19377235 373.94677734 418.50793457 C373.24381027 418.75948807 372.5408432 419.01104156 371.8165741 419.2702179 C361.96269115 422.29286835 352.11379101 421.78310219 341.90848923 421.61297226 C338.53570907 421.56171779 335.16380787 421.53829004 331.79067993 421.52359009 C322.20910664 421.48163934 312.62872478 421.42783746 303.04833984 421.26477051 C297.16598171 421.1666733 291.28616721 421.13229723 285.40303421 421.13916397 C283.17262188 421.12987131 280.9421729 421.097145 278.71247482 421.0399437 C267.42244439 420.30257672 267.42244439 420.30257672 257.0428009 423.79083443 C253.46793176 427.21541479 251.23213196 431.15768519 248.94677734 435.50793457 C248.01840647 436.76769998 247.06157331 438.00798276 246.05615234 439.20715332 C240.99286279 445.62009457 235.95918758 452.05514528 230.94677734 458.50793457 C219.75364119 472.90888757 219.75364119 472.90888757 214.18310547 479.93371582 C212.97900661 481.46689699 211.7984549 483.01847953 210.61865234 484.57043457 C203.0167063 494.35195955 194.35777871 501.19285816 181.94677734 503.50793457 C171.56218626 504.5555633 161.34001821 504.51034498 151.94677734 499.50793457 C151.18494141 499.10703613 150.42310547 498.7061377 149.63818359 498.29309082 C138.91947473 491.88415744 131.63710376 481.01297788 124.23535156 471.20373535 C122.04569038 468.32207817 119.80982532 465.47707898 117.57177734 462.63293457 C117.11536865 462.05221191 116.65895996 461.47148926 116.1887207 460.87316895 C113.82043564 457.86598037 111.43915259 454.86989046 109.04052734 451.88684082 C108.55503418 451.27969238 108.06954102 450.67254395 107.56933594 450.04699707 C106.56508825 448.80535793 105.54690207 447.5748729 104.515625 446.35559082 C101.70838133 442.9837373 99.49227222 439.76592773 97.56396484 435.81652832 C94.85527954 430.66949514 92.03870747 426.50964034 86.94677734 423.50793457 C78.35836947 421.16968562 69.05197137 421.98126553 60.22950745 422.27140808 C47.80049625 422.66599781 35.37101344 422.45598147 22.9395256 422.28053856 C18.44433383 422.2184931 13.94997226 422.18206164 9.45437717 422.16900158 C6.58597715 422.15756448 3.71786567 422.12999214 0.8496151 422.09917641 C-1.119657 422.08280267 -3.08905772 422.08516582 -5.05839539 422.08830261 C-17.11627359 421.92482192 -28.71578189 419.40921401 -39.42822266 413.69543457 C-40.09684326 413.34779053 -40.76546387 413.00014648 -41.4543457 412.64196777 C-46.80318552 409.78912321 -51.57264879 406.61308695 -56.05322266 402.50793457 C-56.95685547 401.68422363 -57.86048828 400.8605127 -58.79150391 400.01184082 C-74.08387321 385.42304467 -82.93413603 366.49215781 -83.51393986 345.34516144 C-83.59009194 339.80401065 -83.59769866 334.2645686 -83.57612133 328.7229979 C-83.56697889 325.24233859 -83.58108556 321.76175612 -83.59204102 318.28111267 C-83.6097339 311.48215377 -83.60602778 304.6833725 -83.59439045 297.88440692 C-83.58531977 292.35379585 -83.58414775 286.8232342 -83.58848572 281.2926178 C-83.58909865 280.50245231 -83.58971158 279.71228683 -83.59034309 278.89817694 C-83.59162212 277.2924669 -83.59291897 275.68675688 -83.59423345 274.08104688 C-83.6056122 259.05978913 -83.59256817 244.03862936 -83.57103199 229.01738769 C-83.55316346 216.15660299 -83.55626833 203.29596276 -83.57470703 190.43518066 C-83.59616172 175.46398466 -83.60451382 160.49287433 -83.59225798 145.5216651 C-83.59098392 143.92219386 -83.58972643 142.32272261 -83.58848572 140.72325134 C-83.58786862 139.93648719 -83.58725151 139.14972304 -83.58661571 138.33911756 C-83.58317657 132.82160273 -83.58895999 127.30414269 -83.59840393 121.78663635 C-83.60967659 115.05336418 -83.60647412 108.32027829 -83.58528095 101.58702719 C-83.57484073 98.15820937 -83.57052672 94.72970098 -83.58387756 91.30088615 C-83.63366582 74.44368975 -83.33898647 59.33040503 -75.24072266 44.13293457 C-74.72687012 43.13652954 -74.72687012 43.13652954 -74.20263672 42.11999512 C-71.36942897 36.77541636 -68.013017 32.08055423 -64.05322266 27.50793457 C-63.45638672 26.71516113 -62.85955078 25.9223877 -62.24462891 25.10559082 C-46.85249345 6.86001136 -23.04040192 -0.15084566 0 0 Z " fill="#FFFFFF" transform="translate(83.05322265625,3.4920654296875)"/>
<path d="M0 0 C4.86531459 3.00457341 8.13797672 6.50048854 10.234375 11.89453125 C10.81883636 15.84633903 10.80163725 19.75615713 10.78369141 23.74560547 C10.7990242 25.51035721 10.7990242 25.51035721 10.81466675 27.3107605 C10.84241135 31.19045498 10.84054895 35.06943699 10.8359375 38.94921875 C10.84055969 40.96920026 10.8475675 42.98916436 10.85475099 45.00913823 C10.87689946 51.35691313 10.87784029 57.7044513 10.86572266 64.05224609 C10.85364828 70.58213758 10.87825937 77.11116661 10.92086279 83.64091098 C10.95619084 89.26413171 10.96808252 94.88707911 10.96158731 100.51040661 C10.9579758 103.86164956 10.96574531 107.21178813 10.99101639 110.56301498 C11.01576616 114.30423644 11.00215267 118.04347684 10.97900391 121.78466797 C11.00193512 123.43082092 11.00193512 123.43082092 11.02532959 125.11022949 C10.92383379 132.55337626 9.17895245 137.28004958 4.234375 142.89453125 C-1.13293231 147.47910624 -6.35698941 147.6208349 -13.3125 147.40625 C-18.49320931 146.63852045 -22.19051317 144.71646043 -25.765625 140.89453125 C-30.23723815 134.70137817 -30.34869081 129.5461143 -30.31494141 122.04345703 C-30.32516327 120.86695587 -30.33538513 119.69045471 -30.34591675 118.478302 C-30.37366135 114.59860752 -30.37179895 110.71962551 -30.3671875 106.83984375 C-30.37180969 104.81986224 -30.3788175 102.79989814 -30.38600099 100.77992427 C-30.40814946 94.43214937 -30.40909029 88.0846112 -30.39697266 81.73681641 C-30.38489828 75.20692492 -30.40950937 68.67789589 -30.45211279 62.14815152 C-30.48744084 56.52493079 -30.49933252 50.90198339 -30.49283731 45.27865589 C-30.4892258 41.92741294 -30.49699531 38.57727437 -30.52226639 35.22604752 C-30.54701616 31.48482606 -30.53340267 27.74558566 -30.51025391 24.00439453 C-30.52554138 22.90695923 -30.54082886 21.80952393 -30.55657959 20.67883301 C-30.45508379 13.23568624 -28.71020245 8.50901292 -23.765625 2.89453125 C-17.29271618 -2.6344117 -7.84970384 -3.13766411 0 0 Z " fill="#FFFFFF" transform="translate(265.765625,182.10546875)"/>
<path d="M0 0 C4.68796317 2.8950501 8.77605467 6.42344712 10.234375 11.89453125 C11.16656452 18.74158704 11.3930195 24.99387098 7.671875 31.01953125 C3.66347868 35.99068326 0.31000422 38.47580101 -6.0078125 39.3359375 C-13.1275177 39.69575056 -18.34453314 39.19135672 -23.98828125 34.640625 C-29.08369757 29.63479842 -30.03494232 26.05750776 -30.390625 19.01953125 C-30.17838344 12.13997715 -28.58962241 7.80486419 -23.765625 2.89453125 C-17.29271618 -2.6344117 -7.84970384 -3.13766411 0 0 Z " fill="#FFFFFF" transform="translate(265.765625,113.10546875)"/>
</svg>
