<?xml version="1.0" encoding="UTF-8"?>
<svg version="1.1" xmlns="http://www.w3.org/2000/svg" width="512" height="512">
<path d="M0 0 C0.58652344 0.47228027 1.17304688 0.94456055 1.77734375 1.43115234 C15.42896568 12.51739432 28.40644542 24.9364596 39 39 C39.46937988 39.6094043 39.93875977 40.21880859 40.42236328 40.84667969 C77.61869263 89.32491933 93.99430207 149.9836693 86.74609375 210.70703125 C80.308086 258.57221928 59.72461095 302.50992897 27 338 C26.2471875 338.8559375 25.494375 339.711875 24.71875 340.59375 C20.10401188 345.84064403 15.35668301 350.525378 10 355 C9.03191406 355.84433594 8.06382812 356.68867188 7.06640625 357.55859375 C-0.26864106 363.93558035 -7.83806417 369.69569744 -16 375 C-17.08023437 375.70511719 -18.16046875 376.41023438 -19.2734375 377.13671875 C-55.51945942 400.13440954 -97.75241765 412.48802777 -140.60449219 412.26074219 C-142.99960616 412.25000177 -145.39397058 412.26073403 -147.7890625 412.2734375 C-207.90353713 412.33213667 -265.03783381 386.02809239 -307.8125 344.4375 C-311.71799561 340.43093796 -315.26227297 336.17376762 -318.75390625 331.8046875 C-320.21686491 329.97789738 -321.70296955 328.16933051 -323.21484375 326.3828125 C-333.41082127 314.30532771 -341.65905021 300.9675227 -349 287 C-349.3697998 286.29987793 -349.73959961 285.59975586 -350.12060547 284.87841797 C-376.97104016 233.26267995 -381.74462624 169.25866052 -364.6875 113.75 C-363.82097962 111.15043886 -362.9352932 108.57406007 -362 106 C-361.72849121 105.2486377 -361.45698242 104.49727539 -361.17724609 103.72314453 C-352.16323796 79.18971213 -339.32816827 57.32020013 -323 37 C-321.79150391 35.48212891 -321.79150391 35.48212891 -320.55859375 33.93359375 C-308.74739398 19.38827755 -295.28718703 5.87118091 -280 -5 C-279.43313477 -5.40589355 -278.86626953 -5.81178711 -278.28222656 -6.22998047 C-198.04574797 -63.06977161 -87.32419048 -65.55427036 0 0 Z M-173.85546875 33.609375 C-176.447654 37.18435356 -177.40957116 40.98160913 -178.3125 45.25 C-178.48072266 45.96929687 -178.64894531 46.68859375 -178.82226562 47.4296875 C-179.70218348 51.1768137 -179.70218348 51.1768137 -180 55 C-201.78 55 -223.56 55 -246 55 C-246 60.61 -246 66.22 -246 72 C-178.35 72 -110.7 72 -41 72 C-41 66.39 -41 60.78 -41 55 C-62.45 55 -83.9 55 -106 55 C-106.99 50.38 -107.98 45.76 -109 41 C-111.61352869 34.28434617 -111.61352869 34.28434617 -117 30 C-122.86005506 29.01784116 -128.76242339 28.84097415 -134.69140625 28.83203125 C-135.480952 28.82870285 -136.27049774 28.82537445 -137.08396912 28.82194519 C-138.73850936 28.81692409 -140.39305956 28.81453536 -142.04760742 28.81469727 C-144.55990336 28.81250227 -147.07176528 28.79427212 -149.58398438 28.77539062 C-151.20312352 28.77245724 -152.82226472 28.77047208 -154.44140625 28.76953125 C-155.18121231 28.76234573 -155.92101837 28.75516022 -156.6832428 28.74775696 C-163.04222225 28.77526902 -168.99067666 29.1638468 -173.85546875 33.609375 Z M-236 82 C-236.14232921 92.10719614 -235.69293496 102.16055936 -235.20556641 112.25170898 C-235.11990838 114.06846024 -235.0344914 115.88522288 -234.94929504 117.70199585 C-234.71836397 122.61022983 -234.48385105 127.51828645 -234.2485013 132.4263103 C-234.05112724 136.54976601 -233.8555834 140.67330769 -233.66004407 144.79685074 C-233.19744763 154.55194492 -232.73200103 164.30690017 -232.26464844 174.06176758 C-231.78622601 184.04850353 -231.31205478 194.03543451 -230.84013045 204.02247947 C-230.43220386 212.65251246 -230.02180743 221.28242561 -229.60947359 229.91224915 C-229.3644304 235.04096659 -229.12018404 240.1697182 -228.87822342 245.29858208 C-227.59139737 272.55640503 -227.59139737 272.55640503 -225.98974609 299.79711914 C-225.91944498 300.95426391 -225.84914387 302.11140867 -225.77671242 303.30361843 C-225.35676798 313.08306416 -225.35676798 313.08306416 -220.8125 321.375 C-214.02715455 325.29542182 -205.22272603 324.14800275 -197.63256836 324.14526367 C-196.28168139 324.14825946 -194.93079528 324.15166295 -193.57991028 324.15544128 C-189.92714125 324.16423957 -186.27439568 324.16661754 -182.62161708 324.16725707 C-180.33720009 324.16796957 -178.05278901 324.17010761 -175.76837349 324.17275429 C-167.79276274 324.18199162 -159.81716866 324.18609091 -151.84155273 324.18530273 C-144.41554504 324.18470133 -136.98960985 324.19526954 -129.56362051 324.2110464 C-123.17787235 324.22412827 -116.79214789 324.22948641 -110.40638644 324.22884732 C-106.59671859 324.22859267 -102.78711532 324.23142648 -98.97746086 324.24202538 C-95.39626387 324.25171808 -91.8151931 324.25177756 -88.23399162 324.24450874 C-86.29812889 324.24296776 -84.36226614 324.25130013 -82.42642212 324.25994873 C-81.26713699 324.25575424 -80.10785187 324.25155975 -78.91343689 324.24723816 C-77.91039992 324.24778293 -76.90736296 324.24832769 -75.87393093 324.24888897 C-71.10897849 323.83623323 -67.84562621 322.71408435 -64.1875 319.625 C-61.22179083 316.066149 -60.91059864 313.17107121 -60.66960144 308.64505005 C-60.62136671 307.77311634 -60.57313198 306.90118263 -60.52343559 306.00282669 C-60.47469355 305.0468597 -60.4259515 304.09089272 -60.37573242 303.10595703 C-60.32065584 302.0830595 -60.26557926 301.06016197 -60.20883369 300.00626755 C-60.0242159 296.54866335 -59.84586455 293.0907687 -59.66796875 289.6328125 C-59.5374292 287.14348031 -59.40682752 284.65415138 -59.27616882 282.16482544 C-57.70398214 251.971867 -56.29280517 221.7707996 -54.89952195 191.56914401 C-54.86105617 190.73534504 -54.82259039 189.90154607 -54.78295898 189.04248047 C-54.74444317 188.20753532 -54.70592735 187.37259017 -54.66624439 186.51234365 C-54.34946691 179.65449185 -54.02727065 172.79690159 -53.70406848 165.93935001 C-53.38614804 159.18820604 -53.07221106 152.43688396 -52.76121968 145.68541729 C-52.57809936 141.7115567 -52.39349931 137.73778089 -52.20467567 133.76418686 C-51.40175439 116.83704624 -50.76639642 99.95101511 -51 83 C-55.92098228 82.19885192 -60.59767006 81.87621572 -65.59934998 81.87974548 C-66.33220327 81.87889106 -67.06505656 81.87803663 -67.82011753 81.87715632 C-70.25827762 81.87551856 -72.69636781 81.88099479 -75.13452148 81.88647461 C-76.88922626 81.88675688 -78.64393116 81.88659798 -80.39863586 81.8860321 C-85.15014632 81.88574567 -89.90163144 81.89161758 -94.65313601 81.89860606 C-99.6232533 81.90486516 -104.5933712 81.90544542 -109.56349182 81.90663147 C-118.96974521 81.90973725 -128.37598694 81.91794048 -137.78223521 81.92798096 C-148.49319579 81.93916549 -159.20415694 81.94465845 -169.91512191 81.94967639 C-191.94342111 81.96012372 -213.97170982 81.97770857 -236 82 Z " fill="#FFFFFF" transform="translate(399,75)"/>
<path d="M0 0 C3.29896494 3.21426445 4.78531039 4.8425914 5.6292057 9.39209747 C5.6320334 11.26363117 5.6320334 11.26363117 5.63491821 13.17297363 C5.64271817 13.87215424 5.65051812 14.57133485 5.65855443 15.29170275 C5.67841821 17.62274698 5.66273397 19.95214827 5.64697266 22.28320312 C5.65375135 23.95907033 5.6626559 25.63493008 5.67352295 27.31077576 C5.69629313 31.85425308 5.6874895 36.39716193 5.67162752 40.94064903 C5.65895667 45.69844454 5.67071193 50.45619181 5.67855835 55.21398926 C5.68765146 63.20345791 5.67567589 71.19269537 5.65185547 79.18212891 C5.62464482 88.41520036 5.63345922 97.64771976 5.6609875 106.88077784 C5.68368721 114.81218515 5.68687443 122.7434264 5.67379415 130.67485571 C5.66600438 135.41016532 5.664945 140.14521554 5.68147659 144.88050842 C5.69593468 149.33275723 5.68587549 153.78429523 5.65700531 158.23646736 C5.6504016 159.86907331 5.65228001 161.50173922 5.66331863 163.13432121 C5.67701546 165.36602661 5.65981318 167.59546489 5.63491821 169.82702637 C5.63303308 171.0747155 5.63114796 172.32240463 5.6292057 173.60790253 C4.79298737 178.11602137 3.20037079 179.76388906 0 183 C-3.28881725 184.64440863 -6.45883158 184.60979128 -10 184 C-13.2451292 182.68022548 -15.13193012 180.96263501 -17 178 C-18.05182829 172.58076797 -17.90572825 167.19425886 -17.82641602 161.70092773 C-17.82771632 160.02344272 -17.83207207 158.34595771 -17.83924866 156.66848755 C-17.84979059 152.12064585 -17.81688518 147.5740478 -17.7756207 143.0264194 C-17.7392555 138.26553807 -17.74105643 133.50466533 -17.73826599 128.7436676 C-17.72813 120.74987492 -17.69193476 112.75655085 -17.63793945 104.76293945 C-17.56875513 94.50414288 -17.54102453 84.24568141 -17.52694798 73.98667812 C-17.51466245 65.16384357 -17.48492695 56.34108101 -17.4515636 47.51830411 C-17.44140577 44.68345923 -17.43333498 41.84861344 -17.42541695 39.01376152 C-17.41172656 34.55922153 -17.38719757 30.10486297 -17.35426903 25.65042496 C-17.34363772 24.01579305 -17.33633977 22.38113556 -17.33261871 20.74647331 C-17.32687631 18.51504551 -17.30885433 16.28404561 -17.28761292 14.05271912 C-17.28036477 12.80410819 -17.27311663 11.55549726 -17.26564884 10.26904964 C-17.00304871 7.03751718 -16.52539125 4.84882288 -15 2 C-10.02386259 -1.31742494 -5.78546978 -1.54967941 0 0 Z " fill="#FFFFFF" transform="translate(299,185)"/>
<path d="M0 0 C0.92683594 -0.0309375 1.85367188 -0.061875 2.80859375 -0.09375 C6.70120638 0.74550833 8.06899707 2.43641551 10.5625 5.5 C11.1917057 8.8030777 11.1917057 8.8030777 11.19741821 12.63537598 C11.20521817 13.34257483 11.21301812 14.04977368 11.22105443 14.77840281 C11.24096086 17.14251576 11.22521704 19.50501642 11.20947266 21.86914062 C11.21624945 23.56618691 11.22515293 25.26322585 11.23602295 26.96025085 C11.25881575 31.56569895 11.24998013 36.17058697 11.23412752 40.77604485 C11.22146841 45.59570703 11.23320867 50.41532128 11.24105835 55.23498535 C11.25015488 63.32878225 11.23816691 71.42235102 11.21435547 79.51611328 C11.18714417 88.87358141 11.19595833 98.23050484 11.2234875 107.58795977 C11.24617747 115.62208993 11.2493792 123.65605611 11.23629415 131.69020796 C11.22849902 136.48865659 11.22745974 141.28684919 11.24397659 146.08528137 C11.25842049 150.59660654 11.24840139 155.10722947 11.21950531 159.61847878 C11.21289402 161.27407986 11.21479297 162.92974004 11.22581863 164.58531761 C11.23948534 166.84588401 11.22234924 169.104201 11.19741821 171.36462402 C11.19553308 172.62928246 11.19364796 173.89394089 11.1917057 175.1969223 C10.39547536 179.3768124 8.80783658 180.84311892 5.5625 183.5 C2.36076746 185.10086627 -0.96327059 184.99917089 -4.4375 184.5 C-7.2475346 182.70636089 -8.94690468 181.48119065 -10.4375 178.5 C-10.68207624 175.48549472 -10.86059251 172.49438871 -10.98950195 169.47412109 C-11.03154157 168.50753759 -11.07358118 167.54095409 -11.11689472 166.54508018 C-11.65119105 152.78756473 -11.60239635 139.01872043 -11.60475707 125.25306749 C-11.60547669 122.88798198 -11.60762743 120.52290197 -11.61025429 118.15781784 C-11.61943185 109.88157543 -11.62359729 101.6053489 -11.62280273 93.32910156 C-11.62219838 85.64777324 -11.63283923 77.96651431 -11.6485464 70.28520358 C-11.66163322 63.64604543 -11.66698642 57.00691003 -11.66634732 50.36773908 C-11.66609343 46.42073873 -11.66888687 42.47380083 -11.67952538 38.52681351 C-11.68923014 34.82804189 -11.68926939 31.1293924 -11.68200874 27.43061638 C-11.68047265 25.43802673 -11.68878568 23.44543701 -11.69744873 21.4528656 C-11.64316511 5.93250594 -11.64316511 5.93250594 -7.65234375 1.53125 C-4.96491312 0.27995955 -2.96283273 0.0328747 0 0 Z " fill="#FFFFFF" transform="translate(218.4375,184.5)"/>
<path d="M0 0 C1.59381206 0.0027051 3.18763336 0.01786501 4.78125 0.04296875 C5.61825439 0.04941406 6.45525879 0.05585937 7.31762695 0.0625 C15.98719534 0.16637576 24.63214789 0.65179525 33.28125 1.23046875 C33.64241046 2.70794335 33.99500048 4.1875155 34.34375 5.66796875 C34.63958984 6.90353516 34.63958984 6.90353516 34.94140625 8.1640625 C35.05355469 8.84597656 35.16570312 9.52789062 35.28125 10.23046875 C34.28125 11.23046875 34.28125 11.23046875 30.40405273 11.34399414 C28.67430833 11.34383496 26.94455919 11.33813724 25.21484375 11.328125 C24.30622086 11.32671005 23.39759796 11.3252951 22.46144104 11.32383728 C19.54717779 11.31822068 16.63299019 11.3056654 13.71875 11.29296875 C11.74804798 11.28795589 9.77734476 11.28339261 7.80664062 11.27929688 C2.96481441 11.26824586 -1.87695495 11.25097013 -6.71875 11.23046875 C-6.60465407 9.77124182 -6.47709456 8.31306277 -6.34375 6.85546875 C-6.27414063 6.04335937 -6.20453125 5.23125 -6.1328125 4.39453125 C-5.36401565 0.37647977 -3.94986458 0.24479203 0 0 Z " fill="#FFFFFF" transform="translate(241.71875,118.76953125)"/>
</svg>
